<?xml version="1.0" encoding="UTF-8" standalone="no"?><svg xmlns="http://www.w3.org/2000/svg" xmlns:xlink="http://www.w3.org/1999/xlink" contentScriptType="application/ecmascript" contentStyleType="text/css" height="143px" preserveAspectRatio="none" style="width:375px;height:143px;" version="1.1" viewBox="0 0 375 143" width="375px" zoomAndPan="magnify"><defs><filter height="300%" id="f7d5cmp" width="300%" x="-1" y="-1"><feGaussianBlur result="blurOut" stdDeviation="2.0"/><feColorMatrix in="blurOut" result="blurOut2" type="matrix" values="0 0 0 0 0 0 0 0 0 0 0 0 0 0 0 0 0 0 .4 0"/><feOffset dx="4.0" dy="4.0" in="blurOut2" result="blurOut3"/><feBlend in="SourceGraphic" in2="blurOut3" mode="normal"/></filter></defs><g><!--class HistoryDatasetAssociation--><polygon fill="#FFEFD5" filter="url(#f7d5cmp)" points="6,8,6,7.3729,16,7.9644,26,8.0756,36,8.3945,46,7.5027,56,7.3769,66,8.3837,76,7.7883,86,7.8431,96,7.8961,106,7.7276,116,7.4965,126,8.4128,136,8.6444,146,7.3211,156,7.9933,166,8.2273,176,7.6885,186,8,185.9504,8,185.4558,17.6716,186.3203,27.3431,186.0242,37.0147,186.7461,46.6863,185.712,56.3579,185.586,66.0294,185.7296,75.701,186.1599,85.3726,186.4865,95.0442,186.6504,104.7157,186.1078,114.3873,185.587,124.0589,186,133.7305,186,134.2412,176,133.0342,166,133.5089,156,133.6631,146,133.538,136,134.2827,126,133.8778,116,133.4704,106,133.5094,96,134.3047,86,134.207,76,132.9919,66,133.3522,56,134.0315,46,133.1327,36,133.8097,26,133.302,16,134.2059,6,133.7305,6.1984,133.7305,6.5531,124.0589,6.0285,114.3873,6.3805,104.7157,5.364,95.0442,5.5026,85.3726,5.7498,75.701,5.4727,66.0294,6.2216,56.3579,5.6104,46.6863,5.5033,37.0147,5.8973,27.3431,5.6472,17.6716,6,8" style="stroke: #FF8C00; stroke-width: 1.5;"/><polygon fill="#ADD1B2" points="32.3612,26.2529,31.3141,29.3611,29.7168,31.1455,28.0423,32.4928,25.5284,34.168,21.9149,34.5008,19.2589,34.4062,16.62,33.3611,13.7866,31.9697,11.8257,30.4531,11.0353,26.9578,10.3972,23.6492,10.0878,21.604,11.0391,18.9517,12.7858,16.7576,14.784,14.5099,17.9212,13.5923,20.8049,12.9144,22.7706,12.9161,25.421,13.8257,28.3397,15.414,30.6554,17.7112,31.7368,20.9238,32.554,23.1896,32.0342,26.5624" style="stroke: #FF8C00; stroke-width: 1.0;"/><path d="M23.9731,29.6431 Q23.3921,29.9419 22.7529,30.0913 Q22.1138,30.2407 21.4082,30.2407 Q18.9014,30.2407 17.5815,28.5889 Q16.2617,26.937 16.2617,23.8159 Q16.2617,20.6865 17.5815,19.0347 Q18.9014,17.3828 21.4082,17.3828 Q22.1138,17.3828 22.7612,17.5322 Q23.4087,17.6816 23.9731,17.9805 L23.9731,20.7031 Q23.3423,20.1221 22.7488,19.8523 Q22.1553,19.5825 21.5244,19.5825 Q20.1797,19.5825 19.4949,20.6492 Q18.8101,21.7158 18.8101,23.8159 Q18.8101,25.9077 19.4949,26.9744 Q20.1797,28.041 21.5244,28.041 Q22.1553,28.041 22.7488,27.7712 Q23.3423,27.5015 23.9731,26.9204 Z "/><text fill="#000000" font-family="sans-serif" font-size="12" lengthAdjust="spacingAndGlyphs" textLength="148" x="35" y="28.5352">HistoryDatasetAssociation</text><path d="M7,40 L7,39.4289 L16.8889,40.3453 L26.7778,39.6727 L36.6667,39.2969 L46.5556,40.3359 L56.4444,39.1788 L66.3333,40.0584 L76.2222,40.4843 L86.1111,39.0648 L96,39.5568 L105.8889,39.3835 L115.7778,40.0255 L125.6667,40.4674 L135.5556,39.0262 L145.4444,39.5768 L155.3333,40.8247 L165.2222,39.7245 L175.1111,40.0477 L185,40 " fill="#FFEFD5" style="stroke: #FF8C00; stroke-width: 1.5;"/><text fill="#000000" font-family="sans-serif" font-size="11" lengthAdjust="spacingAndGlyphs" textLength="61" x="12" y="54.6348">hid: integer</text><text fill="#000000" font-family="sans-serif" font-size="11" lengthAdjust="spacingAndGlyphs" textLength="98" x="12" y="67.5898">history_id: integer</text><text fill="#000000" font-family="sans-serif" font-size="11" lengthAdjust="spacingAndGlyphs" textLength="99" x="12" y="80.5449">dataset_id: integer</text><text fill="#000000" font-family="sans-serif" font-size="11" lengthAdjust="spacingAndGlyphs" textLength="64" x="12" y="93.5">state: string</text><text fill="#000000" font-family="sans-serif" font-size="11" lengthAdjust="spacingAndGlyphs" textLength="67" x="12" y="106.4551">name: string</text><text fill="#000000" font-family="sans-serif" font-size="11" lengthAdjust="spacingAndGlyphs" textLength="59" x="12" y="119.4102">info: string</text><path d="M7,125.7305 L7,124.8663 L16.8889,125.1704 L26.7778,126.477 L36.6667,126.2708 L46.5556,125.3933 L56.4444,125.7156 L66.3333,125.1182 L76.2222,125.0966 L86.1111,125.0537 L96,125.9643 L105.8889,125.9047 L115.7778,126.1537 L125.6667,125.4271 L135.5556,126.1052 L145.4444,124.9961 L155.3333,125.1761 L165.2222,124.9499 L175.1111,126.5112 L185,125.7305 " fill="#FFEFD5" style="stroke: #FF8C00; stroke-width: 1.5;"/><!--class Dataset--><polygon fill="#FFEFD5" filter="url(#f7d5cmp)" points="221.5,14.5,221.5,13.987,231.1667,14.8644,240.8333,13.8163,250.5,14.866,260.1667,14.3436,269.8333,14.7728,279.5,14.579,289.1667,15.1493,298.8333,13.8456,308.5,13.8358,318.1667,14.1107,327.8333,13.8785,337.5,15.1538,347.1667,14.9903,356.8333,13.8309,366.5,14.5,366.7569,14.5,366.9957,24.7523,366.8772,35.0046,365.917,45.2569,366.8495,55.5092,366.8873,65.7615,366.8548,76.0138,366.3072,86.2662,366.4223,96.5185,366.1417,106.7708,366.2822,117.0231,366.5,127.2754,366.5,127.1657,356.8333,127.2456,347.1667,126.8721,337.5,126.8509,327.8333,127.7663,318.1667,127.7191,308.5,127.6065,298.8333,126.5913,289.1667,127.1598,279.5,126.5837,269.8333,127.9579,260.1667,127.5764,250.5,126.9318,240.8333,127.5634,231.1667,127.8975,221.5,127.2754,220.8631,127.2754,221.7554,117.0231,220.9251,106.7708,221.4925,96.5185,221.5453,86.2662,222.0756,76.0138,220.9584,65.7615,221.262,55.5092,221.8155,45.2569,220.8434,35.0046,220.9649,24.7523,221.5,14.5" style="stroke: #FF8C00; stroke-width: 1.5;"/><polygon fill="#ADD1B2" points="277.7466,34.0649,276.9555,36.1274,274.9772,38.4986,273.5259,40.4869,271.1051,40.9395,268.1703,42.1682,265.4129,40.7858,263.5346,40.3081,260.8248,39.5987,258.9074,37.452,258.2493,34.9087,257.399,31.5617,256.7805,28.4347,257.9169,25.0046,259.7217,23.8541,260.5406,21.7724,262.6654,20.6564,265.8096,19.4463,268.5211,19.2138,270.4154,20.4053,272.5169,20.4883,275.5036,22.8299,277.7934,25.1155,278.7453,27.6838,278.8473,30.432,278.4844,33.9638" style="stroke: #FF8C00; stroke-width: 1.0;"/><path d="M270.7231,36.1431 Q270.1421,36.4419 269.5029,36.5913 Q268.8638,36.7407 268.1582,36.7407 Q265.6514,36.7407 264.3315,35.0889 Q263.0117,33.437 263.0117,30.3159 Q263.0117,27.1865 264.3315,25.5347 Q265.6514,23.8828 268.1582,23.8828 Q268.8638,23.8828 269.5112,24.0322 Q270.1587,24.1816 270.7231,24.4805 L270.7231,27.2031 Q270.0923,26.6221 269.4988,26.3523 Q268.9053,26.0825 268.2744,26.0825 Q266.9297,26.0825 266.2449,27.1492 Q265.5601,28.2158 265.5601,30.3159 Q265.5601,32.4077 266.2449,33.4744 Q266.9297,34.541 268.2744,34.541 Q268.9053,34.541 269.4988,34.2712 Q270.0923,34.0015 270.7231,33.4204 Z "/><text fill="#000000" font-family="sans-serif" font-size="12" lengthAdjust="spacingAndGlyphs" textLength="44" x="288.25" y="35.0352">Dataset</text><path d="M222.5,46.5 L222.5,46.8475 L232.7143,45.6879 L242.9286,47.1639 L253.1429,45.8689 L263.3571,45.5805 L273.5714,46.1831 L283.7857,46.6381 L294,46.21 L304.2143,46.185 L314.4286,45.9207 L324.6429,47.3402 L334.8571,47.0627 L345.0714,45.8322 L355.2857,46.6069 L365.5,46.5 " fill="#FFEFD5" style="stroke: #FF8C00; stroke-width: 1.5;"/><text fill="#000000" font-family="sans-serif" font-size="11" lengthAdjust="spacingAndGlyphs" textLength="121" x="227.5" y="61.1348">object_store_id: string</text><text fill="#000000" font-family="sans-serif" font-size="11" lengthAdjust="spacingAndGlyphs" textLength="133" x="227.5" y="74.0898">external_filename: string</text><text fill="#000000" font-family="sans-serif" font-size="11" lengthAdjust="spacingAndGlyphs" textLength="130" x="227.5" y="87.0449">_extra_files_path: string</text><text fill="#000000" font-family="sans-serif" font-size="11" lengthAdjust="spacingAndGlyphs" textLength="87" x="227.5" y="100">file_size: integer</text><text fill="#000000" font-family="sans-serif" font-size="11" lengthAdjust="spacingAndGlyphs" textLength="95" x="227.5" y="112.9551">total_size: integer</text><path d="M222.5,119.2754 L222.5,118.7728 L232.7143,118.5293 L242.9286,120.1035 L253.1429,119.044 L263.3571,118.422 L273.5714,119.7317 L283.7857,120.0282 L294,118.6303 L304.2143,118.7718 L314.4286,119.3595 L324.6429,118.3668 L334.8571,118.4338 L345.0714,118.5867 L355.2857,120.0331 L365.5,119.2754 " fill="#FFEFD5" style="stroke: #FF8C00; stroke-width: 1.5;"/><path d="M186.105,71 L186.105,70.7838 L192.0628,71.0933 L198.0206,70.911 L203.9784,70.7513 L209.9362,71.3284 L215.894,71 " fill="none" style="stroke: #FFA500; stroke-width: 1.0;"/><polygon fill="#FFA500" points="221.087,71,221.0977,71.0241,219.2869,70.1998,217.5453,69.5311,215.657,68.5324,213.9837,68.0176,212.087,67,211.9989,66.9119,213.0491,67.9621,213.6811,68.5941,214.4274,69.3404,215.3838,70.2968,216.087,71,216.2534,71.1664,215.2104,71.7234,214.6609,72.7739,213.7823,73.4953,212.748,74.061,212.087,75,212.17,75.1868,213.7926,73.9877,215.7471,73.5352,217.4602,72.5397,219.323,71.8811,221.087,71" style="stroke: #FFA500; stroke-width: 1.0;"/><text fill="#FFEFD5" font-family="sans-serif" font-size="13" lengthAdjust="spacingAndGlyphs" textLength="6" x="194.1062" y="67.9488">*</text><text fill="#FFEFD5" font-family="sans-serif" font-size="13" lengthAdjust="spacingAndGlyphs" textLength="8" x="205.5159" y="67.8564">1</text></g></svg>