<?xml version="1.0" encoding="UTF-8" standalone="no"?><svg xmlns="http://www.w3.org/2000/svg" xmlns:xlink="http://www.w3.org/1999/xlink" contentScriptType="application/ecmascript" contentStyleType="text/css" height="454px" preserveAspectRatio="none" style="width:471px;height:454px;" version="1.1" viewBox="0 0 471 454" width="471px" zoomAndPan="magnify"><defs><filter height="300%" id="fku2ojo" width="300%" x="-1" y="-1"><feGaussianBlur result="blurOut" stdDeviation="2.0"/><feColorMatrix in="blurOut" result="blurOut2" type="matrix" values="0 0 0 0 0 0 0 0 0 0 0 0 0 0 0 0 0 0 .4 0"/><feOffset dx="4.0" dy="4.0" in="blurOut2" result="blurOut3"/><feBlend in="SourceGraphic" in2="blurOut3" mode="normal"/></filter></defs><g><!--class History--><polygon fill="#FFEFD5" filter="url(#fku2ojo)" points="181.5,8,181.5,7.5404,191.7857,7.8775,202.0714,8.6109,212.3571,8.007,222.6429,7.7386,232.9286,8.6138,243.2143,7.551,253.5,8,253.9616,8,252.9577,17.6,253.1416,27.2,252.9814,36.8,254.1966,46.4,253.5,56,253.5,56.0147,243.2143,55.6935,232.9286,55.5577,222.6429,55.3227,212.3571,56.1641,202.0714,56.2189,191.7857,55.3293,181.5,56,181.7469,56,180.8589,46.4,181.2695,36.8,182.1801,27.2,181.1599,17.6,181.5,8" style="stroke: #FF8C00; stroke-width: 1.5;"/><polygon fill="#ADD1B2" points="206.9812,26.2966,206.3658,29.0583,203.7732,31.3897,201.9857,32.8599,199.1034,34.9384,195.5895,34.8675,193.3711,34.7074,190.0249,33.243,187.5857,31.021,186.0952,27.6959,184.8657,25.0335,185.502,22.0621,186.5236,18.7368,188.3369,15.9903,191.3038,13.7172,193.886,13.0162,196.1771,13.6172,199.4759,13.6635,202.1403,14.8697,204.6429,15.7745,205.2997,18.2867,206.6268,20.0958,207.3398,23.2381,207.3081,25.5531" style="stroke: #FF8C00; stroke-width: 1.0;"/><path d="M199.4731,29.6431 Q198.8921,29.9419 198.2529,30.0913 Q197.6138,30.2407 196.9082,30.2407 Q194.4014,30.2407 193.0815,28.5889 Q191.7617,26.937 191.7617,23.8159 Q191.7617,20.6865 193.0815,19.0347 Q194.4014,17.3828 196.9082,17.3828 Q197.6138,17.3828 198.2612,17.5322 Q198.9087,17.6816 199.4731,17.9805 L199.4731,20.7031 Q198.8423,20.1221 198.2488,19.8523 Q197.6553,19.5825 197.0244,19.5825 Q195.6797,19.5825 194.9949,20.6492 Q194.3101,21.7158 194.3101,23.8159 Q194.3101,25.9077 194.9949,26.9744 Q195.6797,28.041 197.0244,28.041 Q197.6553,28.041 198.2488,27.7712 Q198.8423,27.5015 199.4731,26.9204 Z "/><text fill="#000000" font-family="sans-serif" font-size="12" lengthAdjust="spacingAndGlyphs" textLength="40" x="210.5" y="28.5352">History</text><path d="M182.5,40 L182.5,39.7645 L192.5,40.9995 L202.5,40.0954 L212.5,40.9264 L222.5,39.5627 L232.5,40.5337 L242.5,39.1636 L252.5,40 " fill="#FFEFD5" style="stroke: #FF8C00; stroke-width: 1.5;"/><path d="M182.5,48 L182.5,47.645 L192.5,47.1581 L202.5,47.6347 L212.5,48.0516 L222.5,48.6291 L232.5,48.4134 L242.5,47.7979 L252.5,48 " fill="#FFEFD5" style="stroke: #FF8C00; stroke-width: 1.5;"/><!--class HistoryDatasetAssociation--><polygon fill="#FFEFD5" filter="url(#fku2ojo)" points="26.5,116,26.5,116.07,36.2895,115.513,46.0789,116.3546,55.8684,115.8461,65.6579,116.4957,75.4474,115.3332,85.2368,116.368,95.0263,115.2898,104.8158,116.5816,114.6053,116.2223,124.3947,115.6035,134.1842,115.9069,143.9737,115.6757,153.7632,116.5372,163.5526,116.0503,173.3421,115.4326,183.1316,115.3741,192.9211,115.5929,202.7105,116.3719,212.5,116,212.1624,116,212.7718,126.5586,212.132,137.1172,212.8641,147.6758,212.6295,158.2344,212.2263,168.793,212.641,179.3516,212.5,189.9102,212.5,189.4131,202.7105,190.1018,192.9211,189.713,183.1316,189.2137,173.3421,190.5298,163.5526,189.5372,153.7632,189.3004,143.9737,190.5234,134.1842,190.4452,124.3947,190.0178,114.6053,190.2794,104.8158,190.5074,95.0263,190.0197,85.2368,189.5486,75.4474,190.6061,65.6579,190.6512,55.8684,190.028,46.0789,190.6364,36.2895,189.2214,26.5,189.9102,26.5392,189.9102,27.1328,179.3516,27.1693,168.793,25.9213,158.2344,27.1418,147.6758,26.2176,137.1172,26.4382,126.5586,26.5,116" style="stroke: #FF8C00; stroke-width: 1.5;"/><polygon fill="#ADD1B2" points="55.4031,135.1381,53.6407,137.3659,52.4756,139.4821,49.5509,140.9182,46.8567,141.9824,44.8728,143.3631,41.1798,142.1748,38.2427,141.9831,37.0083,139.6986,33.9368,137.2427,32.9541,135.1505,33.7593,132.3839,33.842,128.8197,34.5831,125.4434,37.3301,123.1439,40.33,122.2363,42.0925,120.7492,45.921,120.5807,48.9427,122.6451,52.1749,124.3696,54.2865,126.6454,54.5552,129.6455,55.3804,132.9935" style="stroke: #FF8C00; stroke-width: 1.0;"/><path d="M47.1731,137.6431 Q46.5921,137.9419 45.9529,138.0913 Q45.3138,138.2407 44.6082,138.2407 Q42.1014,138.2407 40.7815,136.5889 Q39.4617,134.937 39.4617,131.8159 Q39.4617,128.6865 40.7815,127.0347 Q42.1014,125.3828 44.6082,125.3828 Q45.3138,125.3828 45.9612,125.5322 Q46.6087,125.6816 47.1731,125.9805 L47.1731,128.7031 Q46.5423,128.1221 45.9488,127.8523 Q45.3553,127.5825 44.7244,127.5825 Q43.3797,127.5825 42.6949,128.6492 Q42.0101,129.7158 42.0101,131.8159 Q42.0101,133.9077 42.6949,134.9744 Q43.3797,136.041 44.7244,136.041 Q45.3553,136.041 45.9488,135.7712 Q46.5423,135.5015 47.1731,134.9204 Z "/><text fill="#000000" font-family="sans-serif" font-size="12" lengthAdjust="spacingAndGlyphs" textLength="148" x="58.8" y="136.5352">HistoryDatasetAssociation</text><path d="M27.5,148 L27.5,147.1041 L37.7222,148.2456 L47.9444,148.2363 L58.1667,148.9397 L68.3889,148.1456 L78.6111,148.2832 L88.8333,148.3411 L99.0556,147.9138 L109.2778,148.7626 L119.5,148.2572 L129.7222,147.7246 L139.9444,148.0947 L150.1667,148.2618 L160.3889,148.3184 L170.6111,148.6125 L180.8333,147.1196 L191.0556,147.7886 L201.2778,148.529 L211.5,148 " fill="#FFEFD5" style="stroke: #FF8C00; stroke-width: 1.5;"/><text fill="#000000" font-family="sans-serif" font-size="11" lengthAdjust="spacingAndGlyphs" textLength="174" x="32.5" y="162.6348">history_content_type = 'dataset'</text><text fill="#000000" font-family="sans-serif" font-size="11" lengthAdjust="spacingAndGlyphs" textLength="17" x="32.5" y="175.5898">hid</text><path d="M27.5,181.9102 L27.5,182.2466 L37.7222,182.35 L47.9444,182.1623 L58.1667,181.4708 L68.3889,181.6995 L78.6111,181.817 L88.8333,181.6808 L99.0556,181.8577 L109.2778,182.557 L119.5,180.9795 L129.7222,181.4676 L139.9444,181.9326 L150.1667,182.0345 L160.3889,181.0305 L170.6111,182.6365 L180.8333,181.4308 L191.0556,180.9787 L201.2778,182.4202 L211.5,181.9102 " fill="#FFEFD5" style="stroke: #FF8C00; stroke-width: 1.5;"/><!--class HistoryDatasetCollectionAssociation--><polygon fill="#FFEFD5" filter="url(#fku2ojo)" points="218.5,250,218.5,250.3716,228.6667,250.4738,238.8333,249.7381,249,249.4406,259.1667,250.5263,269.3333,249.2601,279.5,250.6233,289.6667,249.9378,299.8333,250.3108,310,249.9605,320.1667,249.3296,330.3333,249.3548,340.5,249.8068,350.6667,249.572,360.8333,250.624,371,250.3061,381.1667,249.7627,391.3333,250.3958,401.5,250.4726,411.6667,250.3893,421.8333,249.2824,432,249.8703,442.1667,250.029,452.3333,250.6797,462.5,250,462.5584,250,461.8963,260.5586,462.2484,271.1172,462.9667,281.6758,462.1844,292.2344,462.8502,302.793,462.9642,313.3516,462.5,323.9102,462.5,324.1764,452.3333,323.6158,442.1667,324.613,432,324.6502,421.8333,324.1826,411.6667,323.9291,401.5,323.7445,391.3333,324.2735,381.1667,323.6666,371,323.4235,360.8333,323.6766,350.6667,323.3888,340.5,323.3658,330.3333,323.359,320.1667,324.0181,310,323.4759,299.8333,324.158,289.6667,323.4189,279.5,324.461,269.3333,324.1693,259.1667,323.7551,249,324.1344,238.8333,324.6437,228.6667,324.2776,218.5,323.9102,218.4001,323.9102,218.5622,313.3516,219.2333,302.793,218.3973,292.2344,217.7682,281.6758,218.3879,271.1172,217.8398,260.5586,218.5,250" style="stroke: #FF8C00; stroke-width: 1.5;"/><polygon fill="#ADD1B2" points="247.9476,268.9049,246.3855,271.5631,244.8498,274.6059,241.7959,276.1462,238.8495,276.4433,236.3632,276.3481,233.6188,275.7831,230.8421,274.1839,228.6728,271.4419,227.3433,269.6707,226.4775,266.1592,227.2415,263.9277,227.9138,261.3347,229.739,258.999,231.7871,256.7671,235.3031,255.4698,237.9929,254.5441,241.3819,256.1396,243.6178,256.0339,245.827,257.8321,246.5437,260.7227,247.5757,263.4935,248.7487,266.4625" style="stroke: #FF8C00; stroke-width: 1.0;"/><path d="M240.5231,271.6431 Q239.9421,271.9419 239.3029,272.0913 Q238.6638,272.2407 237.9582,272.2407 Q235.4514,272.2407 234.1315,270.5889 Q232.8117,268.937 232.8117,265.8159 Q232.8117,262.6865 234.1315,261.0347 Q235.4514,259.3828 237.9582,259.3828 Q238.6638,259.3828 239.3112,259.5322 Q239.9587,259.6816 240.5231,259.9805 L240.5231,262.7031 Q239.8923,262.1221 239.2988,261.8523 Q238.7053,261.5825 238.0744,261.5825 Q236.7297,261.5825 236.0449,262.6492 Q235.3601,263.7158 235.3601,265.8159 Q235.3601,267.9077 236.0449,268.9744 Q236.7297,270.041 238.0744,270.041 Q238.7053,270.041 239.2988,269.7712 Q239.8923,269.5015 240.5231,268.9204 Z "/><text fill="#000000" font-family="sans-serif" font-size="12" lengthAdjust="spacingAndGlyphs" textLength="203" x="252.45" y="270.5352">HistoryDatasetCollectionAssociation</text><path d="M219.5,282 L219.5,282.566 L229.5833,282.0673 L239.6667,281.7137 L249.75,282.2621 L259.8333,281.918 L269.9167,281.9764 L280,282.8562 L290.0833,282.4313 L300.1667,281.8163 L310.25,281.1936 L320.3333,281.1449 L330.4167,281.5097 L340.5,282.3271 L350.5833,282.7327 L360.6667,281.1076 L370.75,282.2698 L380.8333,281.0031 L390.9167,281.6502 L401,281.4322 L411.0833,281.4015 L421.1667,281.9993 L431.25,282.7062 L441.3333,281.1802 L451.4167,282.8104 L461.5,282 " fill="#FFEFD5" style="stroke: #FF8C00; stroke-width: 1.5;"/><text fill="#000000" font-family="sans-serif" font-size="11" lengthAdjust="spacingAndGlyphs" textLength="232" x="224.5" y="296.6348">history_content_type = 'dataset_collection'</text><text fill="#000000" font-family="sans-serif" font-size="11" lengthAdjust="spacingAndGlyphs" textLength="17" x="224.5" y="309.5898">hid</text><path d="M219.5,315.9102 L219.5,316.6112 L229.5833,315.02 L239.6667,316.6014 L249.75,315.094 L259.8333,316.4987 L269.9167,315.878 L280,316.5389 L290.0833,315.0409 L300.1667,316.2839 L310.25,316.5749 L320.3333,315.3055 L330.4167,315.9379 L340.5,315.0997 L350.5833,316.858 L360.6667,315.2742 L370.75,316.3793 L380.8333,315.7128 L390.9167,315.8798 L401,315.935 L411.0833,316.8264 L421.1667,316.3488 L431.25,315.8743 L441.3333,315.1492 L451.4167,316.6946 L461.5,315.9102 " fill="#FFEFD5" style="stroke: #FF8C00; stroke-width: 1.5;"/><!--class DatasetCollection--><polygon fill="#FFEFD5" filter="url(#fku2ojo)" points="29,384,29,384.6547,39.0769,384.4421,49.1538,384.2416,59.2308,384.5846,69.3077,383.9521,79.3846,384.1965,89.4615,384.4821,99.5385,384.6068,109.6154,383.6407,119.6923,383.2826,129.7692,384.6236,139.8462,384.1851,149.9231,384.4094,160,384,159.8572,384,160.3982,394.1592,160.5367,404.3184,159.3619,414.4775,160.4027,424.6367,160.6776,434.7959,160,444.9551,160,444.8661,149.9231,445.4244,139.8462,445.3976,129.7692,444.8231,119.6923,444.9648,109.6154,445.1892,99.5385,444.8603,89.4615,445.5881,79.3846,444.4047,69.3077,445.5139,59.2308,444.6794,49.1538,444.6569,39.0769,445.5455,29,444.9551,29.7335,444.9551,28.6563,434.7959,28.541,424.6367,29.6049,414.4775,29.7069,404.3184,28.6434,394.1592,29,384" style="stroke: #FF8C00; stroke-width: 1.5;"/><polygon fill="#ADD1B2" points="54.4046,403.7585,52.3004,406.7224,49.9469,409.5644,47.3374,410.7345,43.8737,411.4678,40.4877,410.1309,38.2946,409.1079,36.6082,407.3045,34.0698,406.1471,34.1121,403.9284,32.7374,401.7085,33.1483,398.2681,34.6116,395.4783,35.3218,393.3355,37.3572,391.4389,39.0388,389.8709,41.1488,389.9107,44.1046,389.5312,46.7818,388.7738,49.1999,390.6893,51.9744,392.9784,53.665,394.2745,53.9381,397.0141,55.0886,399.8765,54.7504,402.7492" style="stroke: #FF8C00; stroke-width: 1.0;"/><path d="M46.9731,405.6431 Q46.3921,405.9419 45.7529,406.0913 Q45.1138,406.2407 44.4082,406.2407 Q41.9014,406.2407 40.5815,404.5889 Q39.2617,402.937 39.2617,399.8159 Q39.2617,396.6865 40.5815,395.0347 Q41.9014,393.3828 44.4082,393.3828 Q45.1138,393.3828 45.7612,393.5322 Q46.4087,393.6816 46.9731,393.9805 L46.9731,396.7031 Q46.3423,396.1221 45.7488,395.8523 Q45.1553,395.5825 44.5244,395.5825 Q43.1797,395.5825 42.4949,396.6492 Q41.8101,397.7158 41.8101,399.8159 Q41.8101,401.9077 42.4949,402.9744 Q43.1797,404.041 44.5244,404.041 Q45.1553,404.041 45.7488,403.7712 Q46.3423,403.5015 46.9731,402.9204 Z "/><text fill="#000000" font-family="sans-serif" font-size="12" lengthAdjust="spacingAndGlyphs" textLength="99" x="58" y="404.5352">DatasetCollection</text><path d="M30,416 L30,416.5889 L39.9231,415.2848 L49.8462,416.6613 L59.7692,415.468 L69.6923,415.6322 L79.6154,416.8801 L89.5385,416.3988 L99.4615,416.3789 L109.3846,415.3114 L119.3077,416.8286 L129.2308,415.0492 L139.1538,415.0501 L149.0769,415.5293 L159,416 " fill="#FFEFD5" style="stroke: #FF8C00; stroke-width: 1.5;"/><text fill="#000000" font-family="sans-serif" font-size="11" lengthAdjust="spacingAndGlyphs" textLength="81" x="35" y="430.6348">collection_type</text><path d="M30,436.9551 L30,436.6621 L39.9231,436.1962 L49.8462,436.9304 L59.7692,436.827 L69.6923,436.8658 L79.6154,436.1367 L89.5385,436.7258 L99.4615,437.1184 L109.3846,436.2871 L119.3077,437.3917 L129.2308,436.8183 L139.1538,437.3217 L149.0769,436.9244 L159,436.9551 " fill="#FFEFD5" style="stroke: #FF8C00; stroke-width: 1.5;"/><!--class DatasetCollectionElement--><polygon fill="#FFEFD5" filter="url(#fku2ojo)" points="6,250,6,250.6575,15.8333,249.5153,25.6667,250.415,35.5,250.5056,45.3333,249.3781,55.1667,249.5396,65,249.885,74.8333,249.7985,84.6667,250.6493,94.5,249.2952,104.3333,249.8987,114.1667,249.5365,124,249.385,133.8333,250.4193,143.6667,249.4439,153.5,250.5709,163.3333,250.129,173.1667,249.8082,183,250,182.5683,250,183.0096,260.5586,182.9294,271.1172,182.9846,281.6758,182.5662,292.2344,183.4355,302.793,183.4858,313.3516,183,323.9102,183,323.4596,173.1667,324.2743,163.3333,324.541,153.5,323.8808,143.6667,323.3295,133.8333,323.4196,124,324.1745,114.1667,324.5495,104.3333,323.2073,94.5,324.5117,84.6667,323.94,74.8333,324.5389,65,324.1808,55.1667,323.684,45.3333,323.6239,35.5,324.6224,25.6667,323.4958,15.8333,324.3309,6,323.9102,5.606,323.9102,6.2189,313.3516,6.4923,302.793,5.7891,292.2344,6.0649,281.6758,5.8523,271.1172,6.1228,260.5586,6,250" style="stroke: #FF8C00; stroke-width: 1.5;"/><polygon fill="#ADD1B2" points="31.6513,269.1214,30.4576,271.4046,28.4102,274.1692,26.4957,274.8057,24.4611,276.0882,21.9606,277.5142,19.1898,277.0019,15.987,276.2192,13.2895,273.4978,11.8399,271.4596,10.449,268.1202,10.5951,265.8877,11.0338,262.8822,11.2537,260.7912,12.9012,259.1467,14.8657,256.7048,16.5243,255.6157,20.242,254.782,23.4197,255.9099,26.1857,255.6355,28.222,256.9904,29.992,260.3592,32.1182,263.0634,31.9774,265.6323,32.1677,268.9779" style="stroke: #FF8C00; stroke-width: 1.0;"/><path d="M23.9731,271.6431 Q23.3921,271.9419 22.7529,272.0913 Q22.1138,272.2407 21.4082,272.2407 Q18.9014,272.2407 17.5815,270.5889 Q16.2617,268.937 16.2617,265.8159 Q16.2617,262.6865 17.5815,261.0347 Q18.9014,259.3828 21.4082,259.3828 Q22.1138,259.3828 22.7612,259.5322 Q23.4087,259.6816 23.9731,259.9805 L23.9731,262.7031 Q23.3423,262.1221 22.7488,261.8523 Q22.1553,261.5825 21.5244,261.5825 Q20.1797,261.5825 19.4949,262.6492 Q18.8101,263.7158 18.8101,265.8159 Q18.8101,267.9077 19.4949,268.9744 Q20.1797,270.041 21.5244,270.041 Q22.1553,270.041 22.7488,269.7712 Q23.3423,269.5015 23.9731,268.9204 Z "/><text fill="#000000" font-family="sans-serif" font-size="12" lengthAdjust="spacingAndGlyphs" textLength="145" x="35" y="270.5352">DatasetCollectionElement</text><path d="M7,282 L7,282.8996 L16.7222,282.9099 L26.4444,282.3803 L36.1667,281.9279 L45.8889,281.7788 L55.6111,281.4758 L65.3333,281.8185 L75.0556,281.1483 L84.7778,282.2584 L94.5,282.9785 L104.2222,281.5329 L113.9444,281.3709 L123.6667,281.5586 L133.3889,281.6091 L143.1111,281.9228 L152.8333,281.6724 L162.5556,281.4901 L172.2778,281.5854 L182,282 " fill="#FFEFD5" style="stroke: #FF8C00; stroke-width: 1.5;"/><text fill="#000000" font-family="sans-serif" font-size="11" lengthAdjust="spacingAndGlyphs" textLength="78" x="12" y="296.6348">element_index</text><text fill="#000000" font-family="sans-serif" font-size="11" lengthAdjust="spacingAndGlyphs" textLength="96" x="12" y="309.5898">element_identifier</text><path d="M7,315.9102 L7,315.2758 L16.7222,316.6167 L26.4444,315.4626 L36.1667,315.6052 L45.8889,315.8082 L55.6111,315.46 L65.3333,315.7975 L75.0556,315.3815 L84.7778,315.2313 L94.5,315.3864 L104.2222,316.1023 L113.9444,315.9198 L123.6667,315.2961 L133.3889,316.2152 L143.1111,316.824 L152.8333,316.1043 L162.5556,315.814 L172.2778,315.3654 L182,315.9102 " fill="#FFEFD5" style="stroke: #FF8C00; stroke-width: 1.5;"/><path d="M198.372,56.227 L198.9109,56.6708 L192.1021,63.5424 L185.5446,70.621 L180.1964,78.6955 L173.2301,85.4374 L168.2575,93.8211 L162.2274,101.334 L155.817,108.5337 L149.383,115.714 " fill="none" style="stroke: #FFA500; stroke-width: 1.0;"/><text fill="#FFEFD5" font-family="sans-serif" font-size="13" lengthAdjust="spacingAndGlyphs" textLength="8" x="184.7346" y="76.5667">1</text><text fill="#FFEFD5" font-family="sans-serif" font-size="13" lengthAdjust="spacingAndGlyphs" textLength="6" x="148.1715" y="105.3405">*</text><path d="M228.851,56.348 L229.3731,56.6018 L232.508,64.8415 L237.559,74.0127 L241.5126,82.6504 L246.0108,91.5528 L250.997,100.6925 L255.1803,109.4419 L258.1088,117.5812 L262.3125,126.3405 L266.456,135.0705 L271.5272,144.2515 L275.2967,152.7997 L280.8786,162.229 L284.4776,170.6943 L287.851,179.0499 L292.7718,188.1578 L296.7132,196.7895 L300.9445,205.5622 L305.9767,214.7243 L310.2718,223.528 L314.6488,232.3715 L318.4932,240.9561 L322.91,249.819 " fill="none" style="stroke: #FFA500; stroke-width: 1.0;"/><text fill="#FFEFD5" font-family="sans-serif" font-size="13" lengthAdjust="spacingAndGlyphs" textLength="8" x="222.6428" y="76.7172">1</text><text fill="#FFEFD5" font-family="sans-serif" font-size="13" lengthAdjust="spacingAndGlyphs" textLength="6" x="313.1137" y="239.1862">*</text><path d="M269.677,324.131 L269.9036,324.5752 L260.2322,327.9014 L251.3508,332.776 L242.9331,338.5597 L233.524,342.3998 L224.2581,346.5209 L215.5056,351.6481 L206.7096,356.6903 L197.1223,360.1813 L188.1077,364.7948 L179.1005,369.4229 L170.5494,374.945 L161.5659,379.6196 L152.41,383.9562 " fill="none" style="stroke: #FFA500; stroke-width: 1.0;"/><text fill="#FFEFD5" font-family="sans-serif" font-size="13" lengthAdjust="spacingAndGlyphs" textLength="8" x="248.8168" y="344.4047">1</text><text fill="#FFEFD5" font-family="sans-serif" font-size="13" lengthAdjust="spacingAndGlyphs" textLength="8" x="156.2028" y="373.2414">1</text><path d="M106.196,383.624 L106.4941,383.6505 L106.1698,380.7736 L106.4737,377.9524 L106.92,375.1439 L107.4632,372.344 L107.4498,369.4947 L107.2216,369.4867 L107.6204,366.4675 L107.9341,363.4453 L108.0559,360.4165 L107.9094,357.3782 L107.9804,354.3475 L108.1554,354.3497 L107.8746,351.2787 L108.1823,348.2151 L107.5567,345.1397 L107.585,342.0726 L107.7877,339.0076 L108.0235,339.0223 L107.6599,336.0696 L107.6827,333.1409 L107.0004,330.1682 L106.7837,327.2246 L106.872,324.3 " fill="none" style="stroke: #FFA500; stroke-width: 1.0;"/><text fill="#FFEFD5" font-family="sans-serif" font-size="13" lengthAdjust="spacingAndGlyphs" textLength="8" x="99.7834" y="373.314">1</text><text fill="#FFEFD5" font-family="sans-serif" font-size="13" lengthAdjust="spacingAndGlyphs" textLength="24" x="82.9359" y="344.6028">0..1</text><path d="M82.8154,324.3 L82.62,324.2885 L82.8466,327.2535 L82.7053,330.1969 L82.6181,333.1435 L82.0564,336.0622 L81.9506,339.0076 L82.095,339.0094 L81.9476,342.076 L81.812,345.1428 L81.5231,348.2078 L81.7144,351.2785 L81.7686,354.3475 L81.6084,354.3422 L81.6748,357.3705 L82.2748,360.4165 L82.2951,363.4433 L82.3724,366.472 L82.2696,369.4947 L82.5989,369.5223 L82.2171,372.2963 L82.7954,375.1508 L82.9823,377.9725 L83.5294,380.8243 L83.4536,383.624 " fill="none" style="stroke: #FFA500; stroke-width: 1.0;"/><text fill="#FFEFD5" font-family="sans-serif" font-size="13" lengthAdjust="spacingAndGlyphs" textLength="6" x="74.2915" y="344.6028">*</text><text fill="#FFEFD5" font-family="sans-serif" font-size="13" lengthAdjust="spacingAndGlyphs" textLength="8" x="72.3503" y="373.314">1</text><path d="M112.669,190.07 L112.1055,189.9633 L110.205,199.9455 L109.7123,210.1943 L106.6237,219.9515 L105.8839,230.1535 L102.7342,239.8991 L101.3231,249.974 " fill="none" style="stroke: #FFA500; stroke-width: 1.0;"/><text fill="#FFEFD5" font-family="sans-serif" font-size="13" lengthAdjust="spacingAndGlyphs" textLength="8" x="102.7393" y="210.6131">1</text><text fill="#FFEFD5" font-family="sans-serif" font-size="13" lengthAdjust="spacingAndGlyphs" textLength="24" x="76.3686" y="239.3698">0..1</text></g></svg>