<?xml version="1.0" encoding="UTF-8" standalone="no"?><svg xmlns="http://www.w3.org/2000/svg" xmlns:xlink="http://www.w3.org/1999/xlink" contentScriptType="application/ecmascript" contentStyleType="text/css" height="398px" preserveAspectRatio="none" style="width:549px;height:398px;" version="1.1" viewBox="0 0 549 398" width="549px" zoomAndPan="magnify"><defs><filter height="300%" id="fqbv7r7" width="300%" x="-1" y="-1"><feGaussianBlur result="blurOut" stdDeviation="2.0"/><feColorMatrix in="blurOut" result="blurOut2" type="matrix" values="0 0 0 0 0 0 0 0 0 0 0 0 0 0 0 0 0 0 .4 0"/><feOffset dx="4.0" dy="4.0" in="blurOut2" result="blurOut3"/><feBlend in="SourceGraphic" in2="blurOut3" mode="normal"/></filter></defs><g><!--class ObjectStore--><polygon fill="#FFEFD5" filter="url(#fqbv7r7)" points="179,8,179,8.3042,188.75,7.8523,198.5,7.8016,208.25,7.4319,218,8.2815,227.75,8.3602,237.5,8.4684,247.25,8.4099,257,7.3086,266.75,8.5001,276.5,7.9652,286.25,7.8881,296,7.6629,305.75,7.5666,315.5,7.4466,325.25,8.7059,335,8,335.0905,8,335.246,18.2872,335.1859,28.5745,334.5223,38.8617,335.2274,49.1489,334.3107,59.4362,335.2495,69.7234,335.2032,80.0106,334.8036,90.2979,334.8032,100.5851,334.71,110.8723,335.7447,121.1595,334.843,131.4468,335.3454,141.734,335.5539,152.0212,335.2624,162.3085,335,172.5957,335,172.7893,325.25,172.1145,315.5,172.443,305.75,173.335,296,172.1407,286.25,171.9967,276.5,173.1801,266.75,173.0648,257,172.7105,247.25,172.9083,237.5,173.0562,227.75,172.0414,218,172.0121,208.25,173.2169,198.5,172.6723,188.75,172.4469,179,172.5957,178.9516,172.5957,179.0753,162.3085,179.307,152.0212,178.7657,141.734,178.8069,131.4468,179.5907,121.1595,179.7317,110.8723,179.2797,100.5851,178.4707,90.2979,179.1935,80.0106,179.6668,69.7234,179.3165,59.4362,178.7308,49.1489,179.43,38.8617,178.9051,28.5745,179.1865,18.2872,179,8" style="stroke: #FF8C00; stroke-width: 1.5;"/><polygon fill="#A9DCDF" points="229.9165,26.4272,228.7488,29.8863,227.0371,31.4383,225.292,34.1211,221.7867,35.2506,219.4653,34.8093,217.1425,35.2848,214.7131,33.1085,212.6699,32.3322,210.9238,30.5283,209.3632,27.3475,209.0639,24.4077,208.1767,22.3331,209.8129,20.5264,210.7049,18.1443,212.2682,15.8581,214.1158,14.673,216.5378,13.6109,218.5005,13.6968,221.963,13.4271,224.3214,14.0093,226.3903,16.1507,228.6389,17.266,229.8113,18.9257,230.3406,21.5359,231.2681,24.1775" style="stroke: #FF8C00; stroke-width: 1.0;"/><path d="M219.7633,19.3481 L218.6095,24.4199 L220.9254,24.4199 Z M218.2691,17.1069 L221.2657,17.1069 L224.6109,29.5 L222.1622,29.5 L221.3985,26.437 L218.1197,26.437 L217.3727,29.5 L214.9239,29.5 Z "/><text fill="#000000" font-family="sans-serif" font-size="12" font-style="italic" lengthAdjust="spacingAndGlyphs" textLength="67" x="239.35" y="28.5352">ObjectStore</text><path d="M180,40 L180,40.8602 L190.2667,40.7614 L200.5333,39.1183 L210.8,39.2264 L221.0667,40.3113 L231.3333,40.0721 L241.6,39.4454 L251.8667,40.5605 L262.1333,40.6829 L272.4,40.2298 L282.6667,40.0233 L292.9333,39.2413 L303.2,39.9802 L313.4667,39.2061 L323.7333,39.1724 L334,40 " fill="#FFEFD5" style="stroke: #FF8C00; stroke-width: 1.5;"/><path d="M180,48 L180,48.7594 L190.2667,47.1259 L200.5333,47.1768 L210.8,48.6714 L221.0667,48.4809 L231.3333,48.8338 L241.6,47.3936 L251.8667,47.4446 L262.1333,47.2448 L272.4,47.5285 L282.6667,48.6068 L292.9333,48.1571 L303.2,47.5199 L313.4667,48.5157 L323.7333,48.2036 L334,48 " fill="#FFEFD5" style="stroke: #FF8C00; stroke-width: 1.5;"/><text fill="#000000" font-family="sans-serif" font-size="11" lengthAdjust="spacingAndGlyphs" textLength="57" x="185" y="62.6348">exists(obj)</text><text fill="#000000" font-family="sans-serif" font-size="11" lengthAdjust="spacingAndGlyphs" textLength="77" x="185" y="75.5898">file_ready(obj)</text><text fill="#000000" font-family="sans-serif" font-size="11" lengthAdjust="spacingAndGlyphs" textLength="58" x="185" y="88.5449">create(obj)</text><text fill="#000000" font-family="sans-serif" font-size="11" lengthAdjust="spacingAndGlyphs" textLength="46" x="185" y="101.5">size(obj)</text><text fill="#000000" font-family="sans-serif" font-size="11" lengthAdjust="spacingAndGlyphs" textLength="57" x="185" y="114.4551">delete(obj)</text><text fill="#000000" font-family="sans-serif" font-size="11" lengthAdjust="spacingAndGlyphs" textLength="71" x="185" y="127.4102">get_data(obj)</text><text fill="#000000" font-family="sans-serif" font-size="11" lengthAdjust="spacingAndGlyphs" textLength="93" x="185" y="140.3652">get_filename(obj)</text><text fill="#000000" font-family="sans-serif" font-size="11" lengthAdjust="spacingAndGlyphs" textLength="116" x="185" y="153.3203">update_from_file(obj)</text><text fill="#000000" font-family="sans-serif" font-size="11" lengthAdjust="spacingAndGlyphs" textLength="144" x="185" y="166.2754">get_store_usage_percent()</text><!--class DiskObjectStore--><polygon fill="#FFEFD5" filter="url(#fqbv7r7)" points="19,233,19,233.5148,29.3333,233.0564,39.6667,233.4632,50,232.7487,60.3333,232.3772,70.6667,232.2656,81,232.5837,91.3333,233.6091,101.6667,232.9978,112,233.3148,122.3333,233.268,132.6667,233.4731,143,233,143.547,233,143.3372,242.6,142.2503,252.2,143.1519,261.8,143.3461,271.4,143,281,143,280.4815,132.6667,280.2952,122.3333,280.5978,112,281.4771,101.6667,281.5387,91.3333,280.6909,81,281.0996,70.6667,280.8005,60.3333,280.9711,50,280.907,39.6667,281.1546,29.3333,280.716,19,281,18.9481,281,19.3406,271.4,19.694,261.8,18.7243,252.2,19.4666,242.6,19,233" style="stroke: #FF8C00; stroke-width: 1.5;"/><polygon fill="#ADD1B2" points="45.3264,251.7456,43.3875,253.4061,42.9809,255.7784,40.616,257.4993,38.1215,259.6718,35.7453,259.3559,32.7331,260.1755,29.4077,259.3154,27.0149,257.0527,25.0159,255.6194,23.7915,252.6266,22.476,249.704,23.8366,246.2011,24.483,243.1987,27.072,240.6985,29.1252,239.617,31.0497,238.1983,33.4626,237.5459,36.2339,237.7564,38.4097,238.6009,41.1769,239.8082,42.0626,242.4107,44.1902,244.2172,44.9744,246.3408,45.2901,249.7031" style="stroke: #FF8C00; stroke-width: 1.0;"/><path d="M36.9731,254.6431 Q36.3921,254.9419 35.7529,255.0913 Q35.1138,255.2407 34.4082,255.2407 Q31.9014,255.2407 30.5815,253.5889 Q29.2617,251.937 29.2617,248.8159 Q29.2617,245.6865 30.5815,244.0347 Q31.9014,242.3828 34.4082,242.3828 Q35.1138,242.3828 35.7612,242.5322 Q36.4087,242.6816 36.9731,242.9805 L36.9731,245.7031 Q36.3423,245.1221 35.7488,244.8523 Q35.1553,244.5825 34.5244,244.5825 Q33.1797,244.5825 32.4949,245.6492 Q31.8101,246.7158 31.8101,248.8159 Q31.8101,250.9077 32.4949,251.9744 Q33.1797,253.041 34.5244,253.041 Q35.1553,253.041 35.7488,252.7712 Q36.3423,252.5015 36.9731,251.9204 Z "/><text fill="#000000" font-family="sans-serif" font-size="12" lengthAdjust="spacingAndGlyphs" textLength="92" x="48" y="253.5352">DiskObjectStore</text><path d="M20,265 L20,264.7148 L30.1667,264.3396 L40.3333,264.1129 L50.5,264.1044 L60.6667,265.1952 L70.8333,265.3373 L81,265.7045 L91.1667,264.8786 L101.3333,264.847 L111.5,264.2524 L121.6667,265.3948 L131.8333,264.7321 L142,265 " fill="#FFEFD5" style="stroke: #FF8C00; stroke-width: 1.5;"/><path d="M20,273 L20,273.1324 L30.1667,273.11 L40.3333,272.9446 L50.5,273.7359 L60.6667,273.6019 L70.8333,273.873 L81,272.8611 L91.1667,273.6736 L101.3333,272.5351 L111.5,273.4388 L121.6667,272.5892 L131.8333,273.6161 L142,273 " fill="#FFEFD5" style="stroke: #FF8C00; stroke-width: 1.5;"/><!--class NestedObjectStore--><polygon fill="#FFEFD5" filter="url(#fqbv7r7)" points="187,233,187,233.5182,197,232.9775,207,232.8617,217,232.4779,227,232.2638,237,232.405,247,233.0808,257,232.8169,267,232.37,277,233.4235,287,233.2365,297,233.4884,307,232.6267,317,232.5602,327,233,327.2226,233,327.4406,242.6,326.5355,252.2,326.9693,261.8,326.71,271.4,327,281,327,280.489,317,280.8864,307,281.4657,297,281.6327,287,281.3846,277,280.357,267,281.5271,257,280.3429,247,280.5784,237,281.4934,227,280.6161,217,281.3071,207,281.226,197,280.8812,187,281,186.7622,281,186.8323,271.4,186.7832,261.8,187.7283,252.2,186.5004,242.6,187,233" style="stroke: #FF8C00; stroke-width: 1.5;"/><polygon fill="#A9DCDF" points="212.1889,250.9367,211.5665,254.4109,209.8853,256.5757,207.7297,258.2694,205.032,260.2422,201.9168,259.377,199.1907,259.5046,196.8693,258.734,193.7793,257.0113,192.7214,254.6514,191.9238,251.6634,191.1447,249.1185,191.1414,247.1197,192.2198,243.5635,194.4388,241.1421,197.5178,239.2259,200.8156,237.8994,203.6913,237.5793,206.36,239.0219,208.9224,240.7752,211.0784,241.9394,212.4001,245.0952,212.4954,248.569,212.3145,251.0109" style="stroke: #FF8C00; stroke-width: 1.0;"/><path d="M202.1133,244.3481 L200.9595,249.4199 L203.2754,249.4199 Z M200.6191,242.1069 L203.6157,242.1069 L206.9609,254.5 L204.5122,254.5 L203.7485,251.437 L200.4697,251.437 L199.7227,254.5 L197.2739,254.5 Z "/><text fill="#000000" font-family="sans-serif" font-size="12" font-style="italic" lengthAdjust="spacingAndGlyphs" textLength="108" x="216" y="253.5352">NestedObjectStore</text><path d="M188,265 L188,265.7634 L197.8571,264.2778 L207.7143,265.6808 L217.5714,265.2653 L227.4286,264.0628 L237.2857,264.5443 L247.1429,264.4763 L257,264.2374 L266.8571,265.1178 L276.7143,264.0941 L286.5714,264.2902 L296.4286,264.083 L306.2857,264.8251 L316.1429,264.9861 L326,265 " fill="#FFEFD5" style="stroke: #FF8C00; stroke-width: 1.5;"/><path d="M188,273 L188,273.2561 L197.8571,273.3017 L207.7143,272.8509 L217.5714,272.7832 L227.4286,273.906 L237.2857,272.6303 L247.1429,272.1995 L257,273.8221 L266.8571,273.1078 L276.7143,272.931 L286.5714,273.7542 L296.4286,273.5415 L306.2857,272.5319 L316.1429,273.1552 L326,273 " fill="#FFEFD5" style="stroke: #FF8C00; stroke-width: 1.5;"/><!--class S3ObjectStore--><polygon fill="#FFEFD5" filter="url(#fqbv7r7)" points="362.5,233,362.5,232.6331,372.7727,233.1323,383.0455,232.536,393.3182,232.7957,403.5909,232.801,413.8636,233.0437,424.1364,232.5135,434.4091,233.0733,444.6818,232.7937,454.9545,232.3535,465.2273,232.964,475.5,233,475.5378,233,474.9448,242.6,475.6154,252.2,475.8306,261.8,475.9841,271.4,475.5,281,475.5,281.0885,465.2273,281.0912,454.9545,281.4871,444.6818,281.2775,434.4091,281.2574,424.1364,281.3761,413.8636,281.7327,403.5909,280.4358,393.3182,281.0816,383.0455,281.3954,372.7727,280.8051,362.5,281,362.676,281,361.8931,271.4,363.0535,261.8,362.4458,252.2,361.9486,242.6,362.5,233" style="stroke: #FF8C00; stroke-width: 1.5;"/><polygon fill="#ADD1B2" points="388.0362,252.7084,386.815,255.1377,384.2518,257.8855,381.5517,259.6438,378.527,260.5621,374.7301,259.5226,372.6675,259.2142,370.0008,257.6637,368.6823,255.8753,367.1715,252.7003,366.7237,249.8728,367.0032,247.2256,367.9741,244.9386,368.6915,241.44,372.3192,240.0275,375.6442,238.5103,378.0137,237.4753,379.9726,238.4316,383.3152,239.3179,385.7652,242.086,388.0881,244.674,388.5074,247.6896,388.2454,251.0407" style="stroke: #FF8C00; stroke-width: 1.0;"/><path d="M380.4731,254.6431 Q379.8921,254.9419 379.2529,255.0913 Q378.6138,255.2407 377.9082,255.2407 Q375.4014,255.2407 374.0815,253.5889 Q372.7617,251.937 372.7617,248.8159 Q372.7617,245.6865 374.0815,244.0347 Q375.4014,242.3828 377.9082,242.3828 Q378.6138,242.3828 379.2612,242.5322 Q379.9087,242.6816 380.4731,242.9805 L380.4731,245.7031 Q379.8423,245.1221 379.2488,244.8523 Q378.6553,244.5825 378.0244,244.5825 Q376.6797,244.5825 375.9949,245.6492 Q375.3101,246.7158 375.3101,248.8159 Q375.3101,250.9077 375.9949,251.9744 Q376.6797,253.041 378.0244,253.041 Q378.6553,253.041 379.2488,252.7712 Q379.8423,252.5015 380.4731,251.9204 Z "/><text fill="#000000" font-family="sans-serif" font-size="12" lengthAdjust="spacingAndGlyphs" textLength="81" x="391.5" y="253.5352">S3ObjectStore</text><path d="M363.5,265 L363.5,264.1124 L373.5909,264.7417 L383.6818,264.7656 L393.7727,265.7038 L403.8636,265.5958 L413.9545,264.6379 L424.0455,265.8884 L434.1364,265.5874 L444.2273,265.7997 L454.3182,264.8947 L464.4091,265.6533 L474.5,265 " fill="#FFEFD5" style="stroke: #FF8C00; stroke-width: 1.5;"/><path d="M363.5,273 L363.5,272.1561 L373.5909,273.1311 L383.6818,272.3253 L393.7727,273.3625 L403.8636,272.5605 L413.9545,273.0978 L424.0455,273.5179 L434.1364,273.4399 L444.2273,272.0201 L454.3182,272.2782 L464.4091,272.3459 L474.5,273 " fill="#FFEFD5" style="stroke: #FF8C00; stroke-width: 1.5;"/><!--class IRODSObjectStore--><polygon fill="#FFEFD5" filter="url(#fqbv7r7)" points="6,341,6,341.1088,16.3077,340.795,26.6154,341.6941,36.9231,341.2993,47.2308,341.1142,57.5385,341.1016,67.8462,341.5011,78.1538,341.284,88.4615,340.7322,98.7692,341.5798,109.0769,341.2854,119.3846,340.4598,129.6923,340.5419,140,341,139.5777,341,139.8781,350.6,140.2998,360.2,139.3013,369.8,139.8887,379.4,140,389,140,388.4395,129.6923,389.6503,119.3846,389.5623,109.0769,388.5972,98.7692,388.4146,88.4615,389.3564,78.1538,388.3503,67.8462,389.0886,57.5385,388.9467,47.2308,389.1037,36.9231,389.5242,26.6154,388.9066,16.3077,389.6276,6,389,6.1857,389,6.3214,379.4,5.3402,369.8,5.3871,360.2,5.7134,350.6,6,341" style="stroke: #FF8C00; stroke-width: 1.5;"/><polygon fill="#ADD1B2" points="31.9863,359.703,31.3206,361.6273,29.1049,364.0866,27.4343,365.2276,25.4383,366.8804,22.0856,367.9016,20.1451,367.487,18.1167,367.2969,15.4368,366.0527,12.9459,363.9885,11.0998,361.2915,10.7236,358.9509,9.991,355.8312,10.8535,352.9106,12.7239,350.0931,14.943,348.2742,17.8875,346.8328,20.5386,345.3929,23.0053,346.2784,25.4376,347.5203,27.4145,348.2271,28.9687,349.3597,30.4818,352.545,32.3435,354.8049,31.7282,358.5678" style="stroke: #FF8C00; stroke-width: 1.0;"/><path d="M23.9731,362.6431 Q23.3921,362.9419 22.7529,363.0913 Q22.1138,363.2407 21.4082,363.2407 Q18.9014,363.2407 17.5815,361.5889 Q16.2617,359.937 16.2617,356.8159 Q16.2617,353.6865 17.5815,352.0347 Q18.9014,350.3828 21.4082,350.3828 Q22.1138,350.3828 22.7612,350.5322 Q23.4087,350.6816 23.9731,350.9805 L23.9731,353.7031 Q23.3423,353.1221 22.7488,352.8523 Q22.1553,352.5825 21.5244,352.5825 Q20.1797,352.5825 19.4949,353.6492 Q18.8101,354.7158 18.8101,356.8159 Q18.8101,358.9077 19.4949,359.9744 Q20.1797,361.041 21.5244,361.041 Q22.1553,361.041 22.7488,360.7712 Q23.3423,360.5015 23.9731,359.9204 Z "/><text fill="#000000" font-family="sans-serif" font-size="12" lengthAdjust="spacingAndGlyphs" textLength="102" x="35" y="361.5352">IRODSObjectStore</text><path d="M7,373 L7,373.8277 L17.1538,373.556 L27.3077,373.1991 L37.4615,373.7077 L47.6154,373.241 L57.7692,373.3509 L67.9231,372.6175 L78.0769,372.1905 L88.2308,373.1201 L98.3846,373.96 L108.5385,372.9609 L118.6923,373.1189 L128.8462,372.0764 L139,373 " fill="#FFEFD5" style="stroke: #FF8C00; stroke-width: 1.5;"/><path d="M7,381 L7,381.1279 L17.1538,380.1437 L27.3077,380.3734 L37.4615,381.7157 L47.6154,380.3136 L57.7692,381.6414 L67.9231,381.5296 L78.0769,380.3488 L88.2308,381.8625 L98.3846,381.4746 L108.5385,380.4533 L118.6923,380.2514 L128.8462,380.491 L139,381 " fill="#FFEFD5" style="stroke: #FF8C00; stroke-width: 1.5;"/><!--class DistributedObjectStore--><polygon fill="#FFEFD5" filter="url(#fqbv7r7)" points="175.5,341,175.5,341.5929,185.6875,340.2512,195.875,340.5505,206.0625,341.5487,216.25,341.0445,226.4375,340.7881,236.625,340.6492,246.8125,340.6821,257,340.2844,267.1875,341.7251,277.375,340.4195,287.5625,341.4398,297.75,340.8421,307.9375,340.9739,318.125,340.6364,328.3125,341.1549,338.5,341,338.3801,341,338.1811,350.6,338.6901,360.2,339.1864,369.8,338.4635,379.4,338.5,389,338.5,388.722,328.3125,389.1052,318.125,388.4004,307.9375,389.2363,297.75,389.6381,287.5625,388.9338,277.375,388.3367,267.1875,389.1918,257,388.3795,246.8125,389.5653,236.625,389.2954,226.4375,388.2938,216.25,388.6021,206.0625,388.6023,195.875,389.5655,185.6875,388.4835,175.5,389,174.9856,389,175.0222,379.4,175.5881,369.8,176.0856,360.2,175.0856,350.6,175.5,341" style="stroke: #FF8C00; stroke-width: 1.5;"/><polygon fill="#ADD1B2" points="200.8871,360.6346,199.723,362.8164,197.4766,365.2856,195.7798,366.9923,192.927,367.8219,191.0068,368.2268,188.8249,367.7046,186.8606,366.7994,183.8994,365.2889,182.4691,363.6638,180.6131,361.6065,179.9687,357.9591,179.5333,354.2216,180.6757,351.556,182.6055,349.2068,184.718,347.974,187.8288,346.4787,190.037,346.3201,192.5296,346.1151,195.7076,347.1635,197.4979,349.0551,199.607,350.3105,200.9888,352.7949,201.9224,356.2603,201.4402,360.0586" style="stroke: #FF8C00; stroke-width: 1.0;"/><path d="M193.4731,362.6431 Q192.8921,362.9419 192.2529,363.0913 Q191.6138,363.2407 190.9082,363.2407 Q188.4014,363.2407 187.0815,361.5889 Q185.7617,359.937 185.7617,356.8159 Q185.7617,353.6865 187.0815,352.0347 Q188.4014,350.3828 190.9082,350.3828 Q191.6138,350.3828 192.2612,350.5322 Q192.9087,350.6816 193.4731,350.9805 L193.4731,353.7031 Q192.8423,353.1221 192.2488,352.8523 Q191.6553,352.5825 191.0244,352.5825 Q189.6797,352.5825 188.9949,353.6492 Q188.3101,354.7158 188.3101,356.8159 Q188.3101,358.9077 188.9949,359.9744 Q189.6797,361.041 191.0244,361.041 Q191.6553,361.041 192.2488,360.7712 Q192.8423,360.5015 193.4731,359.9204 Z "/><text fill="#000000" font-family="sans-serif" font-size="12" lengthAdjust="spacingAndGlyphs" textLength="131" x="204.5" y="361.5352">DistributedObjectStore</text><path d="M176.5,373 L176.5,372.2855 L186.5625,372.0527 L196.625,373.635 L206.6875,372.0747 L216.75,372.1001 L226.8125,373.095 L236.875,372.373 L246.9375,372.9881 L257,373.2205 L267.0625,373.4768 L277.125,373.3251 L287.1875,373.5695 L297.25,373.3007 L307.3125,373.6727 L317.375,373.0337 L327.4375,372.905 L337.5,373 " fill="#FFEFD5" style="stroke: #FF8C00; stroke-width: 1.5;"/><path d="M176.5,381 L176.5,380.8958 L186.5625,380.0606 L196.625,381.4375 L206.6875,380.2021 L216.75,380.9239 L226.8125,380.4579 L236.875,380.2383 L246.9375,380.1456 L257,381.215 L267.0625,380.7271 L277.125,380.0344 L287.1875,381.6562 L297.25,381.8132 L307.3125,380.2179 L317.375,380.5556 L327.4375,381.7641 L337.5,381 " fill="#FFEFD5" style="stroke: #FF8C00; stroke-width: 1.5;"/><!--class HierarchicalObjectStore--><polygon fill="#FFEFD5" filter="url(#fqbv7r7)" points="373.5,341,373.5,341.0176,383.3235,341.0476,393.1471,340.5381,402.9706,340.2709,412.7941,341.3451,422.6176,340.2754,432.4412,340.6428,442.2647,340.3133,452.0882,341.4145,461.9118,341.5789,471.7353,340.3263,481.5588,341.378,491.3824,341.0792,501.2059,340.8477,511.0294,340.5091,520.8529,341.1182,530.6765,341.4373,540.5,341,540.2469,341,540.3279,350.6,540.3263,360.2,540.354,369.8,539.8141,379.4,540.5,389,540.5,389.1855,530.6765,388.4173,520.8529,389.5187,511.0294,389.5559,501.2059,389.216,491.3824,388.6726,481.5588,389.4322,471.7353,389.5455,461.9118,389.3724,452.0882,388.515,442.2647,388.5877,432.4412,388.5858,422.6176,389.5075,412.7941,388.5034,402.9706,389.1802,393.1471,388.8897,383.3235,389.4256,373.5,389,374.2214,389,373.4591,379.4,373.949,369.8,373.9525,360.2,373.8072,350.6,373.5,341" style="stroke: #FF8C00; stroke-width: 1.5;"/><polygon fill="#ADD1B2" points="399.0313,360.7457,397.5988,363.9412,395.984,365.8956,393.284,366.4651,391.5845,367.3651,388.4073,367.3124,386.4699,367.1684,383.3679,366.2705,381.174,365.8743,379.6482,362.6706,378.0556,361.3271,377.8894,358.2828,377.3115,355.3421,377.951,352.6304,379.6836,350.7437,382.1413,348.8374,384.8959,346.6372,387.1816,345.7832,389.5592,346.346,393.2922,346.571,395.8805,349.434,397.8081,350.3414,399.1003,352.5256,399.8314,356.3326,399.1095,359.4109" style="stroke: #FF8C00; stroke-width: 1.0;"/><path d="M391.4731,362.6431 Q390.8921,362.9419 390.2529,363.0913 Q389.6138,363.2407 388.9082,363.2407 Q386.4014,363.2407 385.0815,361.5889 Q383.7617,359.937 383.7617,356.8159 Q383.7617,353.6865 385.0815,352.0347 Q386.4014,350.3828 388.9082,350.3828 Q389.6138,350.3828 390.2612,350.5322 Q390.9087,350.6816 391.4731,350.9805 L391.4731,353.7031 Q390.8423,353.1221 390.2488,352.8523 Q389.6553,352.5825 389.0244,352.5825 Q387.6797,352.5825 386.9949,353.6492 Q386.3101,354.7158 386.3101,356.8159 Q386.3101,358.9077 386.9949,359.9744 Q387.6797,361.041 389.0244,361.041 Q389.6553,361.041 390.2488,360.7712 Q390.8423,360.5015 391.4731,359.9204 Z "/><text fill="#000000" font-family="sans-serif" font-size="12" lengthAdjust="spacingAndGlyphs" textLength="135" x="402.5" y="361.5352">HierarchicalObjectStore</text><path d="M374.5,373 L374.5,372.0607 L384.2059,373.9959 L393.9118,373.3685 L403.6176,373.3522 L413.3235,373.378 L423.0294,372.0073 L432.7353,372.4182 L442.4412,373.4885 L452.1471,372.2098 L461.8529,372.801 L471.5588,372.59 L481.2647,372.1196 L490.9706,372.4141 L500.6765,372.6604 L510.3824,373.2972 L520.0882,373.4736 L529.7941,372.9938 L539.5,373 " fill="#FFEFD5" style="stroke: #FF8C00; stroke-width: 1.5;"/><path d="M374.5,381 L374.5,381.4724 L384.2059,381.1018 L393.9118,380.6068 L403.6176,380.2085 L413.3235,380.1828 L423.0294,380.5884 L432.7353,381.3509 L442.4412,380.8449 L452.1471,380.6388 L461.8529,381.4178 L471.5588,380.9666 L481.2647,381.3137 L490.9706,381.193 L500.6765,380.6624 L510.3824,380.2107 L520.0882,381.348 L529.7941,381.7156 L539.5,381 " fill="#FFEFD5" style="stroke: #FF8C00; stroke-width: 1.5;"/><path d="M163.948,178.472 L164.531,179.0958 L156.5468,185.0766 L149.5406,192.1038 L142.4767,199.0693 L135.2653,205.8769 L128.2082,212.8497 L120.196,218.8006 L113.7694,226.448 L105.9873,232.645 " fill="none" style="stroke: #FFA500; stroke-width: 1.0;"/><polygon fill="none" points="159.388,173.153,159.4401,173.2713,163.2341,171.3715,167.2216,169.9111,170.9623,167.8902,174.8964,166.3086,178.779,164.61,178.6085,164.5207,176.712,168.3115,174.9977,172.1978,172.8553,175.8598,170.809,179.5721,168.947,183.381,168.8352,183.2765,166.9042,181.213,165.2738,179.4303,163.2609,177.2903,161.1234,175.0338,159.388,173.153" style="stroke: #FFA500; stroke-width: 1.0;"/><path d="M257,193.403 L257.3163,193.403 L257.1226,201.3154 L257.124,209.2278 L256.9964,217.1402 L257.3275,225.0526 L257,232.965 " fill="none" style="stroke: #FFA500; stroke-width: 1.0;"/><polygon fill="none" points="250,193.268,249.8984,193.2324,251.5004,189.3032,252.6036,185.1993,254.1641,181.2554,255.5142,177.238,257,173.268,256.9001,173.233,258.314,177.2379,259.9923,181.3353,261.1078,185.2357,262.533,189.2446,264,193.268,264,193.2306,261.2,193.0502,258.4,193.0748,255.6,193.1368,252.8,193.0775,250,193.268" style="stroke: #FFA500; stroke-width: 1.0;"/><path d="M349.259,185.183 L349.4781,185.3987 L355.884,191.9128 L363.0918,199.2166 L368.8756,205.1181 L376.5856,212.9164 L382.9016,219.3419 L389.2632,225.8123 L396.213,232.862 " fill="none" style="stroke: #FFA500; stroke-width: 1.0;"/><polygon fill="none" points="344.199,190.021,344.3487,190.0917,342.4731,186.2279,340.7634,182.4425,338.6315,178.4578,336.964,174.6923,335.153,170.859,335.2499,171.0565,338.9492,172.7102,342.8132,174.6998,346.4996,176.3274,350.3925,178.3755,354.174,180.197,354.2876,180.3123,352.1099,182.0917,350.2486,184.1922,348.2745,186.1782,346.1905,188.0527,344.199,190.021" style="stroke: #FFA500; stroke-width: 1.0;"/><path d="M77.7529,301.0236 L77.9914,301.0416 L77.0084,308.9435 L76.8634,316.9087 L76.2667,324.8398 L75.2791,332.7414 L74.7601,340.6784 " fill="none" style="stroke: #FFA500; stroke-width: 1.0;"/><polygon fill="none" points="70.7787,300.4169,70.7967,300.4248,72.5457,296.5641,74.0823,292.6105,75.9186,288.788,77.429,284.8231,79.2641,281,79.0805,280.9509,80.1245,285.0314,81.4708,289.1927,82.4746,293.2624,83.4613,297.3275,84.739,301.4705,84.749,301.6027,81.9309,301.047,79.1388,300.836,76.3668,300.8913,73.5614,300.5036,70.7787,300.4169" style="stroke: #FFA500; stroke-width: 1.0;"/><path d="M257,301.0236 L256.967,301.0236 L256.8594,308.9546 L256.9313,316.8855 L256.7861,324.8165 L256.9594,332.7474 L257,340.6784 " fill="none" style="stroke: #FFA500; stroke-width: 1.0;"/><polygon fill="none" points="250,301.0005,250.0904,301.0322,251.276,296.957,252.6467,292.9466,254.0089,288.9333,255.4517,284.9482,257,281,257.232,281.0812,258.5805,285.0632,259.8439,289.0155,261.1246,292.9738,262.7978,297.0695,264,301.0004,264,300.941,261.2,301.1644,258.4,301.093,255.6,301.1265,252.8,300.9597,250,301.0005" style="stroke: #FFA500; stroke-width: 1.0;"/><path d="M318.19,290.4306 L318.4402,290.9027 L327.1954,295.6853 L335.8355,300.2508 L344.3769,304.6301 L352.3845,308.0021 L361.8631,314.1496 L369.7168,317.2312 L378.4646,322 L387.1188,326.592 L396.4734,332.5054 L404.8919,336.6529 L413.343,340.8617 " fill="none" style="stroke: #FFA500; stroke-width: 1.0;"/><polygon fill="none" points="314.79,296.5514,314.8899,296.6438,311.8761,293.4085,309.0548,290.3512,306.2613,287.3197,303.2311,284.0691,300.397,281,300.409,281.0789,304.6238,281.8787,308.7908,282.3631,312.9687,282.9198,317.1827,283.7142,321.347,284.181,321.1837,284.0945,319.9424,286.6057,318.6239,289.076,317.2747,291.53,315.9793,294.0126,314.79,296.5514" style="stroke: #FFA500; stroke-width: 1.0;"/></g></svg>