<?xml version="1.0" encoding="UTF-8" standalone="no"?><svg xmlns="http://www.w3.org/2000/svg" xmlns:xlink="http://www.w3.org/1999/xlink" contentScriptType="application/ecmascript" contentStyleType="text/css" height="433px" preserveAspectRatio="none" style="width:596px;height:433px;" version="1.1" viewBox="0 0 596 433" width="596px" zoomAndPan="magnify"><defs><filter height="300%" id="f1uptcu" width="300%" x="-1" y="-1"><feGaussianBlur result="blurOut" stdDeviation="2.0"/><feColorMatrix in="blurOut" result="blurOut2" type="matrix" values="0 0 0 0 0 0 0 0 0 0 0 0 0 0 0 0 0 0 .4 0"/><feOffset dx="4.0" dy="4.0" in="blurOut2" result="blurOut3"/><feBlend in="SourceGraphic" in2="blurOut3" mode="normal"/></filter></defs><g><polygon fill="#FFEFD5" filter="url(#f1uptcu)" points="387.5,108.7988,387.5,108.9826,389.5,108.8821,391.5,108.8136,393.5,109.0004,395.5,108.8334,397.5,108.7988,397.5876,108.7988,397.5609,114.6609,397.2963,120.523,397.3663,126.3852,397.4909,132.2473,397.5,138.1094,397.5,137.9391,395.5,138.0058,393.5,138.3494,391.5,138.2756,389.5,138.1821,387.5,138.1094,387.5797,138.1094,387.6952,132.2473,387.6257,126.3852,387.7219,120.523,387.3218,114.6609,387.5,108.7988" style="stroke: #FF8C00; stroke-width: 1.0;"/><polygon fill="#FFEFD5" filter="url(#f1uptcu)" points="387.5,222.041,387.5,222.025,389.5,222.2258,391.5,221.943,393.5,222.1921,395.5,222.1977,397.5,222.041,396.8539,222.041,397.9437,232.5325,397.033,243.0239,397.1589,253.5154,396.8377,264.0068,397.4515,274.4983,397.5123,284.9897,398.203,295.4812,397.5,305.9727,397.5,306.157,395.5,305.7905,393.5,306.2023,391.5,306.1874,389.5,305.7838,387.5,305.9727,387.528,305.9727,387.348,295.4812,387.6286,284.9897,387.1034,274.4983,387.4537,264.0068,386.9602,253.5154,387.0022,243.0239,387.5124,232.5325,387.5,222.041" style="stroke: #FF8C00; stroke-width: 1.0;"/><path d="M172,38.4883 L171.5904,38.4883 L171.7008,48.3696 L171.0411,58.2509 L171.6238,68.1322 L172.2794,78.0135 L171.2308,87.8947 L171.0943,97.776 L171.6225,107.6573 L171.1325,117.5386 L172.6825,127.4199 L171.8656,137.3012 L172.6969,147.1825 L171.8179,157.0638 L171.4079,166.9451 L171.8288,176.8264 L171.5675,186.7077 L171.1338,196.589 L171.7719,206.4703 L171.4812,216.3516 L171.4337,226.2329 L172.5308,236.1141 L172.6561,245.9954 L172.0685,255.8767 L171.2288,265.758 L172.7394,275.6393 L171.373,285.5206 L171.1336,295.4019 L172.877,305.2832 L171.2313,315.1645 L172.224,325.0458 L171.94,334.9271 L172.8179,344.8084 L172.2419,354.6897 L172.7325,364.571 L172.285,374.4523 L172.0775,384.3336 L172,394.2148 " fill="none" style="stroke: #FF8C00; stroke-width: 1.0; stroke-dasharray: 5.0,5.0;"/><path d="M392,38.4883 L391.5195,38.4883 L391.3145,48.3696 L392.1236,58.2509 L392.1157,68.1322 L392.8356,78.0135 L392.8192,87.8947 L392.7648,97.776 L391.5712,107.6573 L392.6049,117.5386 L392.9794,127.4199 L391.1816,137.3012 L391.8461,147.1825 L392.7095,157.0638 L391.3573,166.9451 L391.1939,176.8264 L391.2422,186.7077 L391.8079,196.589 L392.8514,206.4703 L392.9354,216.3516 L392.057,226.2329 L392.0328,236.1141 L392.2542,245.9954 L391.1109,255.8767 L392.6886,265.758 L391.0424,275.6393 L392.7035,285.5206 L391.0744,295.4019 L391.3753,305.2832 L392.8865,315.1645 L391.1666,325.0458 L391.7325,334.9271 L391.7077,344.8084 L391.0863,354.6897 L392.3317,364.571 L391.6741,374.4523 L392.5026,384.3336 L392,394.2148 " fill="none" style="stroke: #FF8C00; stroke-width: 1.0; stroke-dasharray: 5.0,5.0;"/><polygon fill="#FFEFD5" filter="url(#f1uptcu)" points="136,3,136,2.7736,145.8571,3.3342,155.7143,2.8315,165.5714,3.0144,175.4286,3.7074,185.2857,3.5621,195.1429,2.8533,205,3,205.2048,3,204.8081,9.0977,205.0512,15.1953,205.0674,21.293,205.2106,27.3906,205,33.4883,205,32.8137,195.1429,32.8793,185.2857,33.4186,175.4286,33.8363,165.5714,34.0071,155.7143,33.3011,145.8571,33.3353,136,33.4883,136.1112,33.4883,136.2471,27.3906,135.9738,21.293,135.7806,15.1953,135.939,9.0977,136,3" style="stroke: #FF8C00; stroke-width: 1.5;"/><text fill="#000000" font-family="sans-serif" font-size="14" lengthAdjust="spacingAndGlyphs" textLength="55" x="143" y="23.5352">Browser</text><polygon fill="#FFEFD5" filter="url(#f1uptcu)" points="136,393.2148,136,393.2049,145.8571,392.5563,155.7143,392.5186,165.5714,392.6744,175.4286,393.5492,185.2857,393.382,195.1429,393.3979,205,393.2148,204.8319,393.2148,204.9304,399.3125,204.9939,405.4102,204.8298,411.5078,204.9572,417.6055,205,423.7031,205,424.0737,195.1429,424.4517,185.2857,424.0662,175.4286,423.5778,165.5714,423.6726,155.7143,424.1259,145.8571,423.9633,136,423.7031,135.9429,423.7031,136.0572,417.6055,135.9168,411.5078,135.931,405.4102,135.9001,399.3125,136,393.2148" style="stroke: #FF8C00; stroke-width: 1.5;"/><text fill="#000000" font-family="sans-serif" font-size="14" lengthAdjust="spacingAndGlyphs" textLength="55" x="143" y="413.75">Browser</text><polygon fill="#FFEFD5" filter="url(#f1uptcu)" points="362,3,362,3.2363,371.5,2.2824,381,2.8247,390.5,3.4412,400,3.0975,409.5,3.1545,419,3,418.8586,3,419.0249,9.0977,418.8585,15.1953,419.2154,21.293,419.0711,27.3906,419,33.4883,419,32.9085,409.5,33.1854,400,32.9569,390.5,34.1963,381,33.9248,371.5,33.0453,362,33.4883,361.8649,33.4883,361.8729,27.3906,361.9854,21.293,362.0022,15.1953,361.9301,9.0977,362,3" style="stroke: #FF8C00; stroke-width: 1.5;"/><text fill="#000000" font-family="sans-serif" font-size="14" lengthAdjust="spacingAndGlyphs" textLength="43" x="369" y="23.5352">Server</text><polygon fill="#FFEFD5" filter="url(#f1uptcu)" points="362,393.2148,362,392.6391,371.5,393.7941,381,393.3597,390.5,392.4885,400,393.277,409.5,393.9071,419,393.2148,419.0326,393.2148,418.8935,399.3125,418.9831,405.4102,418.9923,411.5078,419.1393,417.6055,419,423.7031,419,423.3959,409.5,423.6539,400,423.5827,390.5,423.8078,381,423.0405,371.5,424.2419,362,423.7031,362.1068,423.7031,361.9141,417.6055,362.0185,411.5078,362.2432,405.4102,361.9754,399.3125,362,393.2148" style="stroke: #FF8C00; stroke-width: 1.5;"/><text fill="#000000" font-family="sans-serif" font-size="14" lengthAdjust="spacingAndGlyphs" textLength="43" x="369" y="413.75">Server</text><polygon fill="#FFEFD5" filter="url(#f1uptcu)" points="387.5,108.7988,387.5,108.827,389.5,109.0292,391.5,108.7389,393.5,108.8959,395.5,108.9865,397.5,108.7988,397.6847,108.7988,397.3152,114.6609,397.3935,120.523,397.5624,126.3852,397.5543,132.2473,397.5,138.1094,397.5,137.9656,395.5,138.0151,393.5,138.1442,391.5,138.0047,389.5,138.1672,387.5,138.1094,387.6359,138.1094,387.4135,132.2473,387.4864,126.3852,387.7249,120.523,387.4648,114.6609,387.5,108.7988" style="stroke: #FF8C00; stroke-width: 1.0;"/><polygon fill="#FFEFD5" filter="url(#f1uptcu)" points="387.5,222.041,387.5,222.0066,389.5,221.7986,391.5,222.166,393.5,222.058,395.5,222.0342,397.5,222.041,397.8913,222.041,398.1954,232.5325,397.4653,243.0239,397.6693,253.5154,397.9873,264.0068,396.8896,274.4983,396.9905,284.9897,397.2694,295.4812,397.5,305.9727,397.5,305.9211,395.5,305.8025,393.5,305.7693,391.5,305.8982,389.5,305.7476,387.5,305.9727,386.8775,305.9727,388.1323,295.4812,387.8057,284.9897,387.6412,274.4983,387.0793,264.0068,387.1485,253.5154,386.9467,243.0239,387.5694,232.5325,387.5,222.041" style="stroke: #FF8C00; stroke-width: 1.0;"/><polygon fill="#FFEFD5" filter="url(#f1uptcu)" points="141,53.4883,141.0543,53.4883,140.9329,58.4883,140.9642,63.4883,140.884,68.4883,140.8317,73.4883,141,78.4883,141,77.9503,151.0714,78.2592,161.1429,78.9279,171.2143,78.0381,181.2857,78.9893,191.3571,78.5167,201.4286,78.1681,211.5,78.9743,221.5714,78.4111,231.6429,78.4618,241.7143,79.2106,251.7857,78.297,261.8571,78.7987,271.9286,78.6384,282,78.191,292.0714,78.6005,302.1429,78.0532,312.2143,78.6156,322.2857,78.8099,332.3571,78.1422,342.4286,79.1538,352.5,78.5072,362.5714,78.7301,372.6429,78.3339,382.7143,78.0116,392.7857,78.5971,402.8571,78.7723,412.9286,78.6492,423,78.4883,422.8591,78.4883,422.9493,75.4883,423.0713,72.4883,422.8154,69.4883,422.8527,66.4883,423,63.4883,423.0483,63.5366,420.9948,61.4831,419.0461,59.5344,417.0758,57.5641,414.9762,55.4645,413,53.4883,413,52.7536,402.9259,53.4816,392.8519,53.3303,382.7778,53.9044,372.7037,53.2261,362.6296,53.5406,352.5556,53.3181,342.4815,52.897,332.4074,53.6953,322.3333,53.0739,312.2593,54.0285,302.1852,53.1077,292.1111,53.3876,282.037,53.6104,271.963,53.1064,261.8889,53.7992,251.8148,53.7813,241.7407,53.3296,231.6667,53.3172,221.5926,53.372,211.5185,53.2769,201.4444,54.0291,191.3704,54.2041,181.2963,53.3606,171.2222,53.7007,161.1481,53.9488,151.0741,53.1187,141,53.4883" style="stroke: #BF5700; stroke-width: 1.0;"/><path d="M413,53.4883 L412.9341,53.4883 L412.93,55.4883 L412.9499,57.4883 L413.3032,59.4883 L412.7597,61.4883 L413,63.4883 " fill="#FFEFD5" style="stroke: #BF5700; stroke-width: 1.0;"/><path d="M423,63.4883 L423,63.1728 L421,63.8142 L419,63.2506 L417,63.3695 L415,63.7847 L413,63.4883 " fill="#FFEFD5" style="stroke: #BF5700; stroke-width: 1.0;"/><text fill="#000000" font-family="sans-serif" font-size="13" lengthAdjust="spacingAndGlyphs" textLength="33" x="259" y="71.0566">HTTP</text><polygon fill="#FFA500" points="375.5,104.7988,375.4541,104.684,377.4907,105.5755,379.4127,106.1807,381.5635,107.3576,383.4387,107.8455,385.5,108.7988,385.5551,108.9366,383.4465,109.4652,381.4962,110.3892,379.4552,111.0868,377.5191,112.0467,375.5,112.7988,375.4253,112.7241,376.448,112.1469,377.0361,111.135,378.0317,110.5305,378.8329,109.7317,379.5,108.7988,379.4793,108.7782,378.6356,107.9344,377.8873,107.1861,377.1711,106.4699,376.3424,105.6412,375.5,104.7988" style="stroke: #FFA500; stroke-width: 1.0;"/><path d="M172.5,108.7988 L172.5,107.9672 L182.4524,108.1647 L192.4048,108.0043 L202.3571,108.2462 L212.3095,107.8233 L222.2619,108.1108 L232.2143,107.8629 L242.1667,109.4434 L252.119,108.2284 L262.0714,108.2806 L272.0238,108.2515 L281.9762,107.9772 L291.9286,108.9461 L301.881,109.7505 L311.8333,108.1792 L321.7857,109.6637 L331.7381,109.445 L341.6905,109.4038 L351.6429,109.414 L361.5952,109.1168 L371.5476,108.2558 L381.5,108.7988 " fill="none" style="stroke: #FFA500; stroke-width: 1.0;"/><text fill="#FFEFD5" font-family="sans-serif" font-size="13" lengthAdjust="spacingAndGlyphs" textLength="83" x="179.5" y="104.3672">Page Request</text><polygon fill="#FFA500" points="183.5,134.1094,183.5907,134.3361,181.5581,135.0545,179.4882,135.6798,177.511,136.5369,175.563,137.4669,173.5,138.1094,173.5877,138.3286,175.4692,138.8323,177.5773,139.9026,179.4855,140.4732,181.5323,141.3901,183.5,142.1094,183.4026,142.012,182.7173,141.3266,181.7666,140.376,181.163,139.7724,180.3971,139.0064,179.5,138.1094,179.3561,137.9655,180.4508,137.4601,180.9477,136.3571,181.9687,135.7781,182.7632,134.9725,183.5,134.1094" style="stroke: #FFA500; stroke-width: 1.0;"/><path d="M177.5,138.1094 L177.5,137.8205 L187.6905,138.9928 L197.881,137.7253 L208.0714,137.2787 L218.2619,138.1032 L228.4524,137.2632 L238.6429,137.8461 L248.8333,138.2557 L259.0238,138.1745 L269.2143,138.7054 L279.4048,138.8806 L289.5952,137.5256 L299.7857,138.3706 L309.9762,137.8096 L320.1667,138.1719 L330.3571,137.807 L340.5476,139.0394 L350.7381,138.1591 L360.9286,139.0294 L371.119,138.35 L381.3095,137.1412 L391.5,138.1094 " fill="none" style="stroke: #FFA500; stroke-width: 1.0; stroke-dasharray: 2.0,2.0;"/><text fill="#FFEFD5" font-family="sans-serif" font-size="13" lengthAdjust="spacingAndGlyphs" textLength="191" x="189.5" y="133.6777">Static Content (HTML+JS+CSS)</text><polygon fill="#FFEFD5" filter="url(#f1uptcu)" points="66,151.4199,66.1706,151.4199,65.8144,159.4199,66.2442,167.4199,65.8262,175.4199,65.9531,183.4199,66,191.4199,66,191.2753,75.7,191.5912,85.4,191.898,95.1,191.5866,104.8,192.0556,114.5,192.0566,124.2,191.3214,133.9,190.7647,143.6,191.1797,153.3,191.906,163,191.4199,162.936,191.4199,163.0634,185.4199,163.0789,179.4199,162.835,173.4199,162.8039,167.4199,163,161.4199,162.869,161.289,161.0029,159.4228,159.0198,157.4397,157.1158,155.5358,154.8927,153.3126,153,151.4199,153,151.7375,143.3333,150.8046,133.6667,151.3312,124,151.8689,114.3333,151.4705,104.6667,150.9821,95,150.7895,85.3333,151.343,75.6667,151.4422,66,151.4199" style="stroke: #BF5700; stroke-width: 1.0;"/><path d="M153,151.4199 L153.0992,151.4199 L153.1796,153.4199 L153.0156,155.4199 L152.8149,157.4199 L152.9971,159.4199 L153,161.4199 " fill="#FFEFD5" style="stroke: #BF5700; stroke-width: 1.0;"/><path d="M163,161.4199 L163,161.0975 L161,161.0893 L159,161.5496 L157,161.5728 L155,161.4914 L153,161.4199 " fill="#FFEFD5" style="stroke: #BF5700; stroke-width: 1.0;"/><text fill="#000000" font-family="sans-serif" font-size="13" lengthAdjust="spacingAndGlyphs" textLength="59" x="72" y="168.9883">MVC with</text><text fill="#000000" font-family="sans-serif" font-size="13" lengthAdjust="spacingAndGlyphs" textLength="76" x="72" y="184.2988">backbone.js</text><polygon fill="#FFA500" points="375.5,218.041,375.5713,218.2192,377.547,218.9585,379.5826,219.8475,381.5763,220.6317,383.5454,221.3546,385.5,222.041,385.5401,222.1413,383.5662,223.0064,381.492,223.6209,379.4853,224.4043,377.4793,225.1893,375.5,226.041,375.6315,226.1725,376.3027,225.2437,377.0408,224.3818,377.9021,223.6431,378.6719,222.8129,379.5,222.041,379.5884,222.1294,378.8563,221.3973,377.7497,220.2907,377.2099,219.751,376.1647,218.7057,375.5,218.041" style="stroke: #FFA500; stroke-width: 1.0;"/><path d="M172.5,222.041 L172.5,222.7979 L182.4524,221.6575 L192.4048,221.5208 L202.3571,221.2551 L212.3095,222.222 L222.2619,221.1402 L232.2143,221.2514 L242.1667,222.5815 L252.119,222.871 L262.0714,222.572 L272.0238,221.1363 L281.9762,222.7275 L291.9286,222.4375 L301.881,221.7104 L311.8333,221.2975 L321.7857,221.5363 L331.7381,222.1929 L341.6905,222.989 L351.6429,221.5394 L361.5952,221.8594 L371.5476,221.4481 L381.5,222.041 " fill="none" style="stroke: #FFA500; stroke-width: 1.0;"/><text fill="#FFEFD5" font-family="sans-serif" font-size="13" lengthAdjust="spacingAndGlyphs" textLength="117" x="179.5" y="217.6094">API Request (JSON)</text><polygon fill="#FFEFD5" filter="url(#f1uptcu)" points="402,235.3516,402.1142,235.3516,401.9241,243.3516,402.0203,251.3516,402.0666,259.3516,401.7541,267.3516,402,275.3516,402,274.6548,411.7368,274.8985,421.4737,274.8404,431.2105,275.6107,440.9474,274.9023,450.6842,274.6766,460.4211,275.7943,470.1579,274.8419,479.8947,275.6423,489.6316,275.9548,499.3684,275.5141,509.1053,274.7726,518.8421,275.3278,528.5789,275.4787,538.3158,275.2276,548.0526,275.9376,557.7895,275.6603,567.5263,275.134,577.2632,275.8859,587,275.3516,586.8653,275.3516,587.1231,269.3516,587.2332,263.3516,587.0147,257.3516,586.8685,251.3516,587,245.3516,587.1669,245.5185,585.0136,243.3652,583.1465,241.4981,581.0517,239.4033,579.1306,237.4821,577,235.3516,577,235.8012,567.2778,235.8444,557.5556,234.8645,547.8333,234.9824,538.1111,234.8918,528.3889,235.5696,518.6667,235.3546,508.9444,235.8426,499.2222,235.677,489.5,234.6682,479.7778,234.8744,470.0556,235.608,460.3333,234.9209,450.6111,235.9283,440.8889,235.3606,431.1667,235.0863,421.4444,234.8339,411.7222,235.8394,402,235.3516" style="stroke: #BF5700; stroke-width: 1.0;"/><path d="M577,235.3516 L577.3272,235.3516 L577.2308,237.3516 L577.1696,239.3516 L577.0445,241.3516 L577.2232,243.3516 L577,245.3516 " fill="#FFEFD5" style="stroke: #BF5700; stroke-width: 1.0;"/><path d="M587,245.3516 L587,245.5347 L585,245.3338 L583,245.051 L581,245.2134 L579,245.0427 L577,245.3516 " fill="#FFEFD5" style="stroke: #BF5700; stroke-width: 1.0;"/><text fill="#000000" font-family="sans-serif" font-size="13" lengthAdjust="spacingAndGlyphs" textLength="127" x="408" y="252.9199">Build JSON response</text><text fill="#000000" font-family="sans-serif" font-size="13" lengthAdjust="spacingAndGlyphs" textLength="164" x="408" y="268.2305">in Galaxy "API" controllers</text><polygon fill="#FFA500" points="183.5,301.9727,183.5473,302.0909,181.5252,302.8357,179.5009,303.5749,177.5675,304.5413,175.5879,305.3924,173.5,305.9727,173.4467,305.8395,175.569,306.9453,177.4702,307.4983,179.4588,308.2697,181.4558,309.0623,183.5,309.9727,183.5305,310.0031,182.7385,309.2111,181.7667,308.2394,181.0293,307.5019,180.2742,306.7469,179.5,305.9727,179.6121,306.0847,180.4366,305.3093,181.1527,304.4254,181.8575,303.5301,182.7664,302.839,183.5,301.9727" style="stroke: #FFA500; stroke-width: 1.0;"/><path d="M177.5,305.9727 L177.5,305.0775 L187.6905,305.53 L197.881,305.1199 L208.0714,305.2161 L218.2619,306.8886 L228.4524,305.8757 L238.6429,305.8311 L248.8333,305.8869 L259.0238,305.2164 L269.2143,305.2486 L279.4048,305.5119 L289.5952,306.9211 L299.7857,306.2656 L309.9762,306.1472 L320.1667,306.9487 L330.3571,306.7765 L340.5476,305.224 L350.7381,305.1852 L360.9286,306.3054 L371.119,306.1144 L381.3095,306.7868 L391.5,305.9727 " fill="none" style="stroke: #FFA500; stroke-width: 1.0; stroke-dasharray: 2.0,2.0;"/><text fill="#FFEFD5" font-family="sans-serif" font-size="13" lengthAdjust="spacingAndGlyphs" textLength="127" x="189.5" y="301.541">API Response (JSON)</text><polygon fill="#FFEFD5" filter="url(#f1uptcu)" points="8,319.2832,8.7009,319.2832,7.7193,328.4499,7.951,337.6165,7.9075,346.7832,7.9416,355.9499,7.4393,365.1165,8,374.2832,8,374.6875,17.75,374.6984,27.5,374.1653,37.25,374.8917,47,374.2735,56.75,373.7769,66.5,373.6513,76.25,374.8907,86,374.4929,95.75,374.7959,105.5,374.8059,115.25,374.3932,125,374.6085,134.75,373.6624,144.5,374.4761,154.25,374.6517,164,374.2832,164.3272,374.2832,164.1127,365.2832,163.7999,356.2832,164.6421,347.2832,163.3273,338.2832,164,329.2832,163.8265,329.1097,161.8451,327.1283,159.9567,325.2399,157.8438,323.127,156.1692,321.4525,154,319.2832,154,320.0219,144.2667,319.5808,134.5333,319.4605,124.8,319.6542,115.0667,319.7332,105.3333,319.5369,95.6,319.9065,85.8667,319.6024,76.1333,318.7216,66.4,319.9917,56.6667,319.6321,46.9333,319.8382,37.2,319.6915,27.4667,319.1781,17.7333,319.519,8,319.2832" style="stroke: #BF5700; stroke-width: 1.0;"/><path d="M154,319.2832 L154.098,319.2832 L154.2439,321.2832 L153.8292,323.2832 L153.8804,325.2832 L154.3236,327.2832 L154,329.2832 " fill="#FFEFD5" style="stroke: #BF5700; stroke-width: 1.0;"/><path d="M164,329.2832 L164,329.0879 L162,329.3541 L160,329.1067 L158,329.2942 L156,329.5773 L154,329.2832 " fill="#FFEFD5" style="stroke: #BF5700; stroke-width: 1.0;"/><text fill="#000000" font-family="sans-serif" font-size="13" lengthAdjust="spacingAndGlyphs" textLength="129" x="14" y="336.8516">HTML rendered from</text><text fill="#000000" font-family="sans-serif" font-size="13" lengthAdjust="spacingAndGlyphs" textLength="135" x="14" y="352.1621">client-side templates</text><text fill="#000000" font-family="sans-serif" font-size="13" lengthAdjust="spacingAndGlyphs" textLength="127" x="14" y="367.4727">(in Backbone views).</text></g></svg>