<?xml version="1.0" encoding="UTF-8" standalone="no"?><svg xmlns="http://www.w3.org/2000/svg" xmlns:xlink="http://www.w3.org/1999/xlink" contentScriptType="application/ecmascript" contentStyleType="text/css" height="320px" preserveAspectRatio="none" style="width:633px;height:320px;" version="1.1" viewBox="0 0 633 320" width="633px" zoomAndPan="magnify"><defs><filter height="300%" id="f8s5593" width="300%" x="-1" y="-1"><feGaussianBlur result="blurOut" stdDeviation="2.0"/><feColorMatrix in="blurOut" result="blurOut2" type="matrix" values="0 0 0 0 0 0 0 0 0 0 0 0 0 0 0 0 0 0 .4 0"/><feOffset dx="4.0" dy="4.0" in="blurOut2" result="blurOut3"/><feBlend in="SourceGraphic" in2="blurOut3" mode="normal"/></filter></defs><g><polygon fill="#FFEFD5" filter="url(#f8s5593)" points="419.5,108.7988,419.5,108.9903,421.5,109.0355,423.5,108.6119,425.5,108.9631,427.5,108.7335,429.5,108.7988,429.2228,108.7988,428.9234,118.723,429.9098,128.6473,429.3533,138.5715,429.6618,148.4957,429.5714,158.4199,430.0395,168.3441,429.2588,178.2684,430.0962,188.1926,429.0732,198.1168,429.5,208.041,429.5,208.2697,427.5,208.1104,425.5,208.0151,423.5,208.2893,421.5,208.2844,419.5,208.041,420.165,208.041,418.7861,198.1168,418.9527,188.1926,419.0284,178.2684,419.8362,168.3441,419.9375,158.4199,419.1368,148.4957,419.0275,138.5715,419.73,128.6473,420.1122,118.723,419.5,108.7988" style="stroke: #FF8C00; stroke-width: 1.0;"/><path d="M204,38.4883 L204.3074,38.4883 L203.7779,48.5918 L203.9263,58.6953 L204.5486,68.7988 L204.0773,78.9023 L203.1181,89.0059 L204.1955,99.1094 L204.1545,109.2129 L204.3891,119.3164 L204.2533,129.4199 L203.9835,139.5234 L203.204,149.627 L204.998,159.7305 L203.2015,169.834 L204.5923,179.9375 L204.7409,190.041 L204.9323,200.1445 L204.9998,210.248 L203.6725,220.3516 L203.9221,230.4551 L203.9733,240.5586 L203.0314,250.6621 L203.022,260.7656 L203.7566,270.8691 L204,280.9727 " fill="none" style="stroke: #FF8C00; stroke-width: 1.0; stroke-dasharray: 5.0,5.0;"/><path d="M424,38.4883 L423.9862,38.4883 L424.2349,48.5918 L423.4888,58.6953 L423.1454,68.7988 L423.5698,78.9023 L423.0434,89.0059 L424.9258,99.1094 L424.3325,109.2129 L424.4413,119.3164 L423.7799,129.4199 L423.8184,139.5234 L424.215,149.627 L423.8646,159.7305 L424.5423,169.834 L423.8123,179.9375 L424.7418,190.041 L424.2532,200.1445 L423.3613,210.248 L424.9142,220.3516 L423.8472,230.4551 L424.8454,240.5586 L423.5992,250.6621 L423.6194,260.7656 L424.0183,270.8691 L424,280.9727 " fill="none" style="stroke: #FF8C00; stroke-width: 1.0; stroke-dasharray: 5.0,5.0;"/><polygon fill="#FFEFD5" filter="url(#f8s5593)" points="168,3,168,2.2862,177.8571,3.1353,187.7143,3.4817,197.5714,3.5164,207.4286,3.516,217.2857,2.4799,227.1429,2.4605,237,3,236.7949,3,237.2444,9.0977,236.9511,15.1953,236.9354,21.293,237.2194,27.3906,237,33.4883,237,33.1353,227.1429,33.634,217.2857,34.2294,207.4286,34.041,197.5714,32.8794,187.7143,33.4391,177.8571,33.366,168,33.4883,167.7614,33.4883,167.9631,27.3906,168.0283,21.293,167.7857,15.1953,168.1666,9.0977,168,3" style="stroke: #FF8C00; stroke-width: 1.5;"/><text fill="#000000" font-family="sans-serif" font-size="14" lengthAdjust="spacingAndGlyphs" textLength="55" x="175" y="23.5352">Browser</text><polygon fill="#FFEFD5" filter="url(#f8s5593)" points="168,279.9727,168,280.5542,177.8571,280.0515,187.7143,280.6859,197.5714,280.4841,207.4286,280.0479,217.2857,280.2655,227.1429,280.3369,237,279.9727,237.1322,279.9727,237.1472,286.0703,236.9677,292.168,237.1882,298.2656,236.8248,304.3633,237,310.4609,237,310.1889,227.1429,310.8797,217.2857,310.0133,207.4286,311.144,197.5714,310.2754,187.7143,310.1095,177.8571,309.9288,168,310.4609,167.8306,310.4609,168.1684,304.3633,167.867,298.2656,167.9736,292.168,168.2173,286.0703,168,279.9727" style="stroke: #FF8C00; stroke-width: 1.5;"/><text fill="#000000" font-family="sans-serif" font-size="14" lengthAdjust="spacingAndGlyphs" textLength="55" x="175" y="300.5078">Browser</text><polygon fill="#FFEFD5" filter="url(#f8s5593)" points="394,3,394,3.2049,403.5,3.7173,413,3.334,422.5,2.3513,432,3.2027,441.5,3.0631,451,3,450.7997,3,450.8906,9.0977,451.1493,15.1953,450.8888,21.293,451.213,27.3906,451,33.4883,451,33.6471,441.5,32.7715,432,34.0689,422.5,33.1664,413,33.2942,403.5,33.8564,394,33.4883,393.9892,33.4883,394.132,27.3906,393.9413,21.293,394.1714,15.1953,393.847,9.0977,394,3" style="stroke: #FF8C00; stroke-width: 1.5;"/><text fill="#000000" font-family="sans-serif" font-size="14" lengthAdjust="spacingAndGlyphs" textLength="43" x="401" y="23.5352">Server</text><polygon fill="#FFEFD5" filter="url(#f8s5593)" points="394,279.9727,394,280.1201,403.5,280.1855,413,279.2989,422.5,279.5564,432,280.6855,441.5,279.8515,451,279.9727,450.9777,279.9727,450.9851,286.0703,451.1862,292.168,451.1136,298.2656,450.8947,304.3633,451,310.4609,451,310.9947,441.5,310.3326,432,309.9163,422.5,310.4321,413,309.8582,403.5,310.1188,394,310.4609,394.0155,310.4609,393.7779,304.3633,394.2441,298.2656,393.8272,292.168,394.1208,286.0703,394,279.9727" style="stroke: #FF8C00; stroke-width: 1.5;"/><text fill="#000000" font-family="sans-serif" font-size="14" lengthAdjust="spacingAndGlyphs" textLength="43" x="401" y="300.5078">Server</text><polygon fill="#FFEFD5" filter="url(#f8s5593)" points="419.5,108.7988,419.5,108.8677,421.5,108.7901,423.5,109.0175,425.5,108.5996,427.5,108.9873,429.5,108.7988,429.5225,108.7988,429.3902,118.723,429.8423,128.6473,429.8274,138.5715,429.0556,148.4957,429.0329,158.4199,430.073,168.3441,430.1816,178.2684,428.9443,188.1926,429.1598,198.1168,429.5,208.041,429.5,208.2733,427.5,208.0481,425.5,208.0819,423.5,207.805,421.5,208.1328,419.5,208.041,419.3732,208.041,418.9001,198.1168,419.5379,188.1926,419.612,178.2684,419.1302,168.3441,419.2,158.4199,419.4119,148.4957,419.4508,138.5715,419.5158,128.6473,420.0125,118.723,419.5,108.7988" style="stroke: #FF8C00; stroke-width: 1.0;"/><polygon fill="#FFEFD5" filter="url(#f8s5593)" points="173,53.4883,172.9936,53.4883,173.0406,58.4883,173.1768,63.4883,172.9969,68.4883,173.1211,73.4883,173,78.4883,173,78.9052,183.0714,79.145,193.1429,78.5774,203.2143,78.4003,213.2857,77.7782,223.3571,77.8159,233.4286,78.4208,243.5,79.1722,253.5714,78.3643,263.6429,78.0847,273.7143,79.2231,283.7857,79.008,293.8571,77.7887,303.9286,78.0682,314,79.0203,324.0714,79.2207,334.1429,78.784,344.2143,79.0755,354.2857,77.766,364.3571,79.0162,374.4286,77.7738,384.5,78.3737,394.5714,77.9439,404.6429,77.8538,414.7143,78.282,424.7857,78.7891,434.8571,78.7884,444.9286,78.4843,455,78.4883,454.7776,78.4883,454.7663,75.4883,454.9933,72.4883,455.1352,69.4883,454.7623,66.4883,455,63.4883,454.9624,63.4507,453.1629,61.6512,451.0776,59.5658,449.1763,57.6646,447.1565,55.6448,445,53.4883,445,53.5185,434.9259,53.3832,424.8519,53.7788,414.7778,53.6858,404.7037,52.7479,394.6296,52.7933,384.5556,52.7544,374.4815,53.063,364.4074,53.65,354.3333,52.743,344.2593,53.8637,334.1852,54.1651,324.1111,53.0653,314.037,53.5396,303.963,53.5282,293.8889,53.793,283.8148,53.4478,273.7407,53.5807,263.6667,53.4081,253.5926,52.9323,243.5185,52.8257,233.4444,53.5149,223.3704,53.8337,213.2963,54.1526,203.2222,53.4523,193.1481,54.0172,183.0741,53.9029,173,53.4883" style="stroke: #BF5700; stroke-width: 1.0;"/><path d="M445,53.4883 L444.7632,53.4883 L444.846,55.4883 L445.3068,57.4883 L444.8142,59.4883 L444.9456,61.4883 L445,63.4883 " fill="#FFEFD5" style="stroke: #BF5700; stroke-width: 1.0;"/><path d="M455,63.4883 L455,63.6427 L453,63.7266 L451,63.3581 L449,63.6017 L447,63.412 L445,63.4883 " fill="#FFEFD5" style="stroke: #BF5700; stroke-width: 1.0;"/><text fill="#000000" font-family="sans-serif" font-size="13" lengthAdjust="spacingAndGlyphs" textLength="33" x="291" y="71.0566">HTTP</text><polygon fill="#FFA500" points="407.5,104.7988,407.5203,104.8496,409.4706,105.5252,411.5852,106.6119,413.5864,107.4147,415.4267,107.8156,417.5,108.7988,417.4619,108.7037,415.5517,109.7281,413.4714,110.3274,411.478,111.1438,409.477,111.9414,407.5,112.7988,407.6263,112.9251,408.3904,112.0892,409.0068,111.1057,409.803,110.3019,410.6282,109.5271,411.5,108.7988,411.5787,108.8775,410.667,107.9658,409.9341,107.2329,408.9259,106.2247,408.3266,105.6254,407.5,104.7988" style="stroke: #FFA500; stroke-width: 1.0;"/><path d="M204.5,108.7988 L204.5,107.9258 L214.4524,108.8702 L224.4048,109.7864 L234.3571,109.502 L244.3095,109.5042 L254.2619,109.5059 L264.2143,108.043 L274.1667,109.3345 L284.119,108.0454 L294.0714,108.1723 L304.0238,108.8545 L313.9762,109.5808 L323.9286,108.5871 L333.881,108.1898 L343.8333,109.4736 L353.7857,108.5548 L363.7381,108.7374 L373.6905,108.5697 L383.6429,109.4971 L393.5952,108.9621 L403.5476,109.6996 L413.5,108.7988 " fill="none" style="stroke: #FFA500; stroke-width: 1.0;"/><text fill="#FFEFD5" font-family="sans-serif" font-size="13" lengthAdjust="spacingAndGlyphs" textLength="83" x="211.5" y="104.3672">Page Request</text><polygon fill="#FFEFD5" filter="url(#f8s5593)" points="434,122.1094,434.325,122.1094,433.6485,131.276,433.966,140.4427,433.5464,149.6094,434.0784,158.776,433.9701,167.9427,434,177.1094,434,176.7194,444,176.4523,454,177.2688,464,176.8131,474,176.9483,484,177.7913,494,176.9276,504,177.6544,514,176.7484,524,176.4012,534,176.5269,544,177.4817,554,177.8401,564,176.9911,574,177.2034,584,177.4229,594,176.5803,604,177.3697,614,177.6791,624,177.1094,623.3272,177.1094,624.5976,168.1094,624.0297,159.1094,624.0894,150.1094,623.287,141.1094,624,132.1094,624.1331,132.2425,621.9546,130.064,620.1389,128.2483,617.9061,126.0154,615.959,124.0684,614,122.1094,614,122.6219,604,122.0247,594,121.7524,584,121.4738,574,122.3885,564,122.8025,554,121.8195,544,121.6276,534,122.1668,524,122.4294,514,122.5057,504,121.8736,494,122.5003,484,122.102,474,121.7036,464,122.1296,454,122.3712,444,122.3144,434,122.1094" style="stroke: #BF5700; stroke-width: 1.0;"/><path d="M614,122.1094 L613.9643,122.1094 L614.1292,124.1094 L613.8822,126.1094 L613.6678,128.1094 L613.8226,130.1094 L614,132.1094 " fill="#FFEFD5" style="stroke: #BF5700; stroke-width: 1.0;"/><path d="M624,132.1094 L624,131.9097 L622,132.3026 L620,132.0901 L618,132.039 L616,132.4068 L614,132.1094 " fill="#FFEFD5" style="stroke: #BF5700; stroke-width: 1.0;"/><text fill="#000000" font-family="sans-serif" font-size="13" lengthAdjust="spacingAndGlyphs" textLength="139" x="440" y="139.6777">Build HTML fragments</text><text fill="#000000" font-family="sans-serif" font-size="13" lengthAdjust="spacingAndGlyphs" textLength="164" x="440" y="154.9883">using Mako Python library</text><text fill="#000000" font-family="sans-serif" font-size="13" lengthAdjust="spacingAndGlyphs" textLength="169" x="440" y="170.2988">in Galaxy "web" controllers</text><polygon fill="#FFA500" points="215.5,204.041,215.5794,204.2394,213.5097,204.8653,211.4177,205.4353,209.4882,206.4115,207.4372,207.084,205.5,208.041,205.5281,208.1114,207.5582,208.9866,209.5084,209.6619,211.5558,210.5805,213.4358,211.0805,215.5,212.041,215.4648,212.0058,214.7794,211.3205,213.7305,210.2715,213.2006,209.7416,212.3045,208.8455,211.5,208.041,211.3651,207.9061,212.2724,207.2134,213.1925,206.5336,213.9613,205.7023,214.5484,204.6894,215.5,204.041" style="stroke: #FFA500; stroke-width: 1.0;"/><path d="M209.5,208.041 L209.5,208.4568 L219.6905,207.1179 L229.881,208.7538 L240.0714,208.6172 L250.2619,208.4444 L260.4524,207.8049 L270.6429,208.6904 L280.8333,207.748 L291.0238,208.1001 L301.2143,207.5832 L311.4048,208.7787 L321.5952,207.0651 L331.7857,207.7972 L341.9762,208.0308 L352.1667,208.6934 L362.3571,208.0781 L372.5476,208.6284 L382.7381,209.0053 L392.9286,208.8869 L403.119,208.0138 L413.3095,207.0612 L423.5,208.041 " fill="none" style="stroke: #FFA500; stroke-width: 1.0; stroke-dasharray: 2.0,2.0;"/><text fill="#FFEFD5" font-family="sans-serif" font-size="13" lengthAdjust="spacingAndGlyphs" textLength="191" x="221.5" y="203.6094">Static Content (HTML+JS+CSS)</text><polygon fill="#FFEFD5" filter="url(#f8s5593)" points="8,221.3516,8.1249,221.3516,7.8072,229.3516,7.7543,237.3516,7.8924,245.3516,8.2161,253.3516,8,261.3516,8,260.8996,17.8947,261.1784,27.7895,261.6236,37.6842,261.5822,47.5789,260.6744,57.4737,261.4562,67.3684,260.8521,77.2632,260.6276,87.1579,261.8675,97.0526,262.0417,106.9474,261.0356,116.8421,261.6782,126.7368,260.8943,136.6316,261.1179,146.5263,260.6977,156.4211,261.7116,166.3158,261.3839,176.2105,261.0388,186.1053,260.6616,196,261.3516,195.8869,261.3516,196.2479,255.3516,196.1995,249.3516,196.1556,243.3516,195.9322,237.3516,196,231.3516,196.0976,231.4491,194.0692,229.4208,192.0066,227.3581,190.1518,225.5034,187.8688,223.2204,186,221.3516,186,221.4921,176.1111,220.7895,166.2222,221.4983,156.3333,221.2063,146.4444,220.7338,136.5556,221.2892,126.6667,221.1611,116.7778,221.5337,106.8889,221.2602,97,220.8871,87.1111,221.1821,77.2222,221.7391,67.3333,221.0745,57.4444,220.7198,47.5556,222.0956,37.6667,221.3845,27.7778,221.1255,17.8889,221.9553,8,221.3516" style="stroke: #BF5700; stroke-width: 1.0;"/><path d="M186,221.3516 L185.7797,221.3516 L186.1219,223.3516 L185.8265,225.3516 L186.0748,227.3516 L186.0308,229.3516 L186,231.3516 " fill="#FFEFD5" style="stroke: #BF5700; stroke-width: 1.0;"/><path d="M196,231.3516 L196,231.4794 L194,231.3118 L192,231.1999 L190,231.4649 L188,231.3425 L186,231.3516 " fill="#FFEFD5" style="stroke: #BF5700; stroke-width: 1.0;"/><text fill="#000000" font-family="sans-serif" font-size="13" lengthAdjust="spacingAndGlyphs" textLength="163" x="14" y="238.9199">Render HTML fragraments</text><text fill="#000000" font-family="sans-serif" font-size="13" lengthAdjust="spacingAndGlyphs" textLength="92" x="14" y="254.2305">with JavaScript</text></g></svg>