<?xml version="1.0" encoding="UTF-8" standalone="no"?><svg xmlns="http://www.w3.org/2000/svg" xmlns:xlink="http://www.w3.org/1999/xlink" contentScriptType="application/ecmascript" contentStyleType="text/css" height="196px" preserveAspectRatio="none" style="width:372px;height:196px;" version="1.1" viewBox="0 0 372 196" width="372px" zoomAndPan="magnify"><defs><filter height="300%" id="f0ak7c1" width="300%" x="-1" y="-1"><feGaussianBlur result="blurOut" stdDeviation="2.0"/><feColorMatrix in="blurOut" result="blurOut2" type="matrix" values="0 0 0 0 0 0 0 0 0 0 0 0 0 0 0 0 0 0 .4 0"/><feOffset dx="4.0" dy="4.0" in="blurOut2" result="blurOut3"/><feBlend in="SourceGraphic" in2="blurOut3" mode="normal"/></filter></defs><g><polygon fill="#FFEFD5" filter="url(#f0ak7c1)" points="6,8,6,7.4035,15.8276,7.8386,25.6552,8.4154,35.4828,7.2845,45.3103,8.4138,55.1379,7.5957,64.9655,7.372,74.7931,7.4994,84.6207,7.9107,94.4483,8.1886,104.2759,8.4603,114.1034,7.464,123.931,8.3212,133.7586,8.4946,143.5862,7.5792,153.4138,8.4473,163.2414,8.1331,173.069,8.3213,182.8966,8.2345,192.7241,7.8667,202.5517,8.3868,212.3793,8.1437,222.2069,8.7413,232.0345,8.4233,241.8621,8.0611,251.6897,8.3799,261.5172,7.5102,271.3448,8.4105,281.1724,8.0883,291,8,291.0238,8,290.6739,17.4466,290.8151,26.8932,291.297,36.3398,291.1134,45.7865,290.7241,55.2331,291.4099,64.6797,290.9708,74.1263,291.624,83.5729,291,93.0195,291,92.3408,281.1724,93.3269,271.3448,93.4449,261.5172,92.9601,251.6897,93.0247,241.8621,93.4452,232.0345,93.5748,222.2069,92.6016,212.3793,92.704,202.5517,92.5198,192.7241,93.6927,182.8966,92.8406,173.069,93.0256,163.2414,92.6775,153.4138,93.6852,143.5862,92.7878,133.7586,92.5298,123.931,93.6807,114.1034,93.5427,104.2759,92.8837,94.4483,92.3775,84.6207,93.2391,74.7931,93.6718,64.9655,92.5779,55.1379,92.8947,45.3103,92.2806,35.4828,92.5933,25.6552,93.2516,15.8276,92.7186,6,93.0195,5.2541,93.0195,6.616,83.5729,6.1633,74.1263,6.425,64.6797,6.5706,55.2331,5.5598,45.7865,6.5197,36.3398,5.8464,26.8932,6.4855,17.4466,6,8" style="stroke: #FF8C00; stroke-width: 1.5;"/><text fill="#000000" font-family="sans-serif" font-size="12" lengthAdjust="spacingAndGlyphs" textLength="47" x="125" y="21.6016">webapp</text><path d="M7,26.1328 L7,25.9481 L17.1071,26.1459 L27.2143,25.6719 L37.3214,27.0877 L47.4286,26.234 L57.5357,26.0223 L67.6429,25.8795 L77.75,26.0154 L87.8571,26.7096 L97.9643,25.8567 L108.0714,25.7801 L118.1786,25.7621 L128.2857,25.6912 L138.3929,26.9145 L148.5,26.7603 L158.6071,26.7764 L168.7143,27.0779 L178.8214,25.3885 L188.9286,25.5088 L199.0357,27.0489 L209.1429,26.2512 L219.25,25.879 L229.3571,26.6251 L239.4643,27.0937 L249.5714,27.0208 L259.6786,25.2928 L269.7857,25.542 L279.8929,25.9659 L290,26.1328 " fill="#FFEFD5" style="stroke: #FF8C00; stroke-width: 1.5;"/><text fill="#000000" font-family="sans-serif" font-size="10" lengthAdjust="spacingAndGlyphs" textLength="79" x="12" y="39.8008">controllers : dict</text><text fill="#000000" font-family="sans-serif" font-size="10" lengthAdjust="spacingAndGlyphs" textLength="99" x="12" y="51.5781">api_controllers : dict</text><text fill="#000000" font-family="sans-serif" font-size="10" lengthAdjust="spacingAndGlyphs" textLength="117" x="12" y="63.3555">mapper : routes.Mapper</text><text fill="#000000" font-family="sans-serif" font-size="10" lengthAdjust="spacingAndGlyphs" textLength="227" x="12" y="75.1328">handle_request: (environ, start_response) -&gt; ()</text><text fill="#000000" font-family="sans-serif" font-size="10" lengthAdjust="spacingAndGlyphs" textLength="273" x="12" y="86.9102">transaction_factory: (environ) -&gt; GalaxyWebTransaction</text><polygon fill="#FFEFD5" filter="url(#f0ak7c1)" points="326,33.5,326,33.7058,333.4,33.3635,340.8,33.3931,348.2,33.2925,355.6,33.3435,363,33.5,363.0014,33.5,363.0863,40.3266,363.2042,47.1531,363.1701,53.9797,363.1714,60.8063,363,67.6328,363,67.653,355.6,67.4114,348.2,67.8591,340.8,67.8693,333.4,67.6824,326,67.6328,325.8436,67.6328,326.075,60.8063,326.0995,53.9797,326.2384,47.1531,325.8651,40.3266,326,33.5" style="stroke: #FF8C00; stroke-width: 1.5;"/><text fill="#000000" font-family="sans-serif" font-size="12" lengthAdjust="spacingAndGlyphs" textLength="23" x="333" y="47.1016">app</text><path d="M327,51.6328 L327,51.3061 L334,51.7906 L341,51.5872 L348,51.5377 L355,51.9528 L362,51.6328 " fill="#FFEFD5" style="stroke: #FF8C00; stroke-width: 1.5;"/><polygon fill="#FFEFD5" filter="url(#f0ak7c1)" points="225,153,225,153.1978,233.6,152.8651,242.2,152.9349,250.8,152.8902,259.4,152.9642,268,153,268.0564,153,268.1836,159.8266,267.915,166.6531,267.9033,173.4797,267.7769,180.3063,268,187.1328,268,186.9432,259.4,187.1396,250.8,186.9452,242.2,187.157,233.6,187.1872,225,187.1328,225.0538,187.1328,224.861,180.3063,225.1932,173.4797,225.0917,166.6531,225.2,159.8266,225,153" style="stroke: #FF8C00; stroke-width: 1.5;"/><text fill="#000000" font-family="sans-serif" font-size="12" lengthAdjust="spacingAndGlyphs" textLength="29" x="232" y="166.6016">trans</text><path d="M226,171.1328 L226,171.1206 L234.2,171.0162 L242.4,171.3409 L250.6,171.1147 L258.8,170.8689 L267,171.1328 " fill="#FFEFD5" style="stroke: #FF8C00; stroke-width: 1.5;"/><path d="M291.289,50.5 L291.289,50.3309 L297.1654,50.3543 L303.0418,50.3525 L308.9182,50.4665 L314.7946,50.3479 L320.671,50.5 " fill="none" style="stroke: #FFA500; stroke-width: 1.0;"/><polygon fill="#FFA500" points="325.793,50.5,325.7246,50.3462,323.893,49.475,322.2587,49.0479,320.4779,48.2911,318.6393,47.4042,316.793,46.5,316.7364,46.4434,317.704,47.411,318.2876,47.9946,319.1343,48.8413,320.166,49.873,320.793,50.5,320.7939,50.5009,320.0454,51.3524,319.0696,51.9766,318.5603,53.0673,317.6123,53.7193,316.793,54.5,316.8795,54.6947,318.6647,53.8614,320.4522,53.0331,322.2598,52.2503,324.0561,51.442,325.793,50.5" style="stroke: #FFA500; stroke-width: 1.0;"/><text fill="#FFEFD5" font-family="sans-serif" font-size="13" lengthAdjust="spacingAndGlyphs" textLength="23" x="295.0525" y="46.1693">app</text><path d="M327.436,71.959 L327.7172,72.1935 L321.5647,79.5236 L315.6004,87.0107 L308.8609,93.8513 L302.1595,100.7236 L297.0866,108.9541 L290.6154,116.0185 L284.1672,123.1019 L278.6716,130.98 L272.4461,138.2491 L266.439,145.7006 L260.011,152.8009 " fill="none" style="stroke: #FFA500; stroke-width: 1.0;"/><polygon fill="#FFA500" points="330.874,67.838,330.8612,67.812,329.0391,68.5704,327.2572,69.4108,325.6736,70.6537,323.7735,71.2538,322.0375,72.1874,322.049,72.3144,323.1827,72.289,324.3109,72.2031,325.4095,71.7895,326.5642,71.996,327.6714,71.6777,327.4861,71.6609,327.598,72.7886,328.0277,73.945,328.1012,75.0692,327.8382,76.163,328.1811,77.3115,328.0193,77.2656,328.484,75.3498,329.233,73.5149,329.5715,71.5634,330.167,69.6848,330.874,67.838" style="stroke: #FFA500; stroke-width: 1.0;"/><text fill="#FFEFD5" font-family="sans-serif" font-size="13" lengthAdjust="spacingAndGlyphs" textLength="23" x="299.8651" y="88.3518">app</text><path d="M191.939,103.582 L192.5439,104.0865 L198.5358,111.5797 L205.4508,119.8428 L212.7384,128.4167 L219.0179,136.1497 L226.1192,144.5682 L232.97,152.7778 " fill="none" style="stroke: #FFA500; stroke-width: 1.0;"/><polygon fill="#FFA500" points="183.327,93.2569,183.1714,93.2402,183.402,94.6823,183.5016,96.1104,184.024,97.584,184.151,99.015,184.098,100.4267,184.1268,100.5242,185.4601,100.7654,186.9214,101.4396,188.2058,101.5156,189.6752,102.217,191.0127,102.4726,190.7723,102.4468,190.7555,101.0276,190.7239,99.6068,190.4468,98.1596,190.3721,96.7342,190.2418,95.3028,190.1736,95.0724,188.7969,94.6842,187.4679,94.4576,186.097,94.0891,184.6785,93.5598,183.327,93.2569" style="stroke: #FFA500; stroke-width: 1.0;"/></g></svg>